<svg width="377" height="498" viewBox="0 0 377 498" fill="none" xmlns="http://www.w3.org/2000/svg">
<rect x="92" y="52" width="239" height="389" rx="15" fill="#006EFF"/>
<rect x="93" y="53" width="237" height="387" rx="14" stroke="#F9F9F9" stroke-opacity="0.2" stroke-width="2"/>
<mask id="mask0_2_23" style="mask-type:alpha" maskUnits="userSpaceOnUse" x="96" y="56" width="231" height="381">
<rect x="96.3773" y="56.1649" width="230.245" height="380.67" rx="15" fill="#D9D9D9"/>
</mask>
<g mask="url(#mask0_2_23)">
<rect width="486.389" height="199.993" transform="matrix(0.724466 -0.689311 0.724466 0.689311 -57.511 359.785)" fill="url(#paint0_linear_2_23)"/>
<rect width="393.34" height="212.786" transform="matrix(0.724466 -0.689311 0.724466 0.689311 -136.74 145.71)" fill="url(#paint1_linear_2_23)"/>
<rect width="171.751" height="158.934" transform="matrix(0.724466 -0.689311 0.724466 0.689311 -37.8132 55.4389)" fill="url(#paint2_linear_2_23)"/>
<rect width="313.585" height="126.28" transform="matrix(0.724466 -0.689311 0.724466 0.689311 117.143 463.074)" fill="url(#paint3_linear_2_23)"/>
<rect width="171.751" height="158.934" transform="matrix(0.724466 -0.689311 0.724466 0.689311 202.938 449.437)" fill="url(#paint4_linear_2_23)"/>
</g>
<rect x="167" y="406" width="89" height="19" rx="9.5" fill="white" fill-opacity="0.5"/>
<defs>
<linearGradient id="paint0_linear_2_23" x1="-401.238" y1="166.071" x2="483.945" y2="-17.4865" gradientUnits="userSpaceOnUse">
<stop stop-color="#FEFEFF"/>
<stop offset="1" stop-color="#0077FF"/>
</linearGradient>
<linearGradient id="paint1_linear_2_23" x1="324.46" y1="188.513" x2="120.54" y2="182.773" gradientUnits="userSpaceOnUse">
<stop stop-color="#439BFF"/>
<stop offset="1" stop-color="#0957B1"/>
</linearGradient>
<linearGradient id="paint2_linear_2_23" x1="137.837" y1="131.64" x2="35.1218" y2="130.432" gradientUnits="userSpaceOnUse">
<stop stop-color="#0479FF"/>
<stop offset="1" stop-color="#032A56"/>
</linearGradient>
<linearGradient id="paint3_linear_2_23" x1="62.5357" y1="29.3042" x2="263.737" y2="26.2831" gradientUnits="userSpaceOnUse">
<stop stop-color="#439BFF"/>
<stop offset="1" stop-color="#0957B1"/>
</linearGradient>
<linearGradient id="paint4_linear_2_23" x1="47.508" y1="30.435" x2="136.327" y2="29.2266" gradientUnits="userSpaceOnUse">
<stop stop-color="#0479FF"/>
<stop offset="1" stop-color="#032A56"/>
</linearGradient>
</defs>
</svg>
