<svg width="512" height="512" viewBox="0 0 512 512" fill="none" xmlns="http://www.w3.org/2000/svg">
<g filter="url(#filter0_i_1_3)">
<mask id="path-1-inside-1_1_3" fill="white">
<path d="M251.208 505.985C251.994 505.994 252.781 505.999 253.569 505.999C252.781 505.999 251.994 505.994 251.208 505.985ZM255.024 505.994C254.547 505.998 254.07 505.999 253.592 505.999C254.07 505.999 254.547 505.998 255.024 505.994ZM256.447 505.979C256.18 505.983 255.912 505.985 255.645 505.988C255.912 505.985 256.18 505.983 256.447 505.979ZM251.208 505.985C251.112 505.983 251.016 505.983 250.92 505.982C251.016 505.983 251.112 505.983 251.208 505.985ZM250.223 505.97C249.96 505.965 249.697 505.961 249.435 505.955C249.697 505.961 249.96 505.965 250.223 505.97ZM258.001 505.948C257.699 505.955 257.396 505.962 257.094 505.967C257.396 505.962 257.699 505.955 258.001 505.948ZM249.039 505.946C248.714 505.938 248.388 505.93 248.063 505.921C248.388 505.93 248.714 505.938 249.039 505.946ZM259.388 505.912C259.069 505.922 258.75 505.93 258.431 505.938C258.75 505.93 259.069 505.922 259.388 505.912ZM247.624 505.907C247.3 505.898 246.975 505.887 246.651 505.875C246.975 505.887 247.3 505.898 247.624 505.907ZM260.758 505.866C260.538 505.875 260.317 505.882 260.097 505.889C260.317 505.882 260.538 505.875 260.758 505.866ZM246.257 505.862C245.968 505.851 245.679 505.839 245.39 505.826C245.679 505.839 245.968 505.851 246.257 505.862ZM262.233 505.806C261.987 505.817 261.74 505.828 261.493 505.838C261.74 505.828 261.987 505.817 262.233 505.806ZM244.751 505.798C244.502 505.787 244.252 505.775 244.003 505.763C244.252 505.775 244.502 505.787 244.751 505.798ZM263.79 505.731C263.525 505.745 263.26 505.758 262.995 505.771C263.26 505.758 263.525 505.745 263.79 505.731ZM243.489 505.738C243.169 505.721 242.849 505.703 242.529 505.685C242.849 505.703 243.169 505.721 243.489 505.738ZM265.495 505.633C265.094 505.658 264.693 505.681 264.291 505.703C264.693 505.681 265.094 505.658 265.495 505.633ZM242.132 505.662C241.713 505.638 241.294 505.611 240.875 505.583C241.294 505.611 241.713 505.638 242.132 505.662ZM268.045 505.459C267.272 505.517 266.499 505.571 265.724 505.619C266.499 505.571 267.272 505.517 268.045 505.459ZM240.823 505.58C240.4 505.552 239.977 505.522 239.554 505.491C239.977 505.522 240.4 505.552 240.823 505.58ZM239.404 505.482C238.949 505.448 238.494 505.414 238.039 505.377C238.494 505.414 238.949 505.448 239.404 505.482ZM269.445 505.349C268.979 505.387 268.512 505.424 268.045 505.459C268.512 505.424 268.979 505.387 269.445 505.349ZM237.852 505.361C237.46 505.329 237.069 505.296 236.679 505.262C237.069 505.296 237.46 505.329 237.852 505.361ZM270.098 505.295C269.88 505.314 269.663 505.331 269.445 505.349C269.663 505.331 269.88 505.314 270.098 505.295ZM271.477 505.172C271.192 505.199 270.906 505.224 270.621 505.249C270.906 505.224 271.192 505.199 271.477 505.172ZM236.136 505.213C235.893 505.191 235.651 505.169 235.408 505.146C235.651 505.169 235.893 505.191 236.136 505.213ZM272.851 505.039C272.677 505.057 272.503 505.073 272.329 505.09C272.503 505.073 272.677 505.057 272.851 505.039ZM234.621 505.07C234.436 505.051 234.252 505.034 234.067 505.015C234.252 505.034 234.436 505.051 234.621 505.07ZM274.362 504.882C274.121 504.908 273.879 504.934 273.637 504.959C273.879 504.934 274.121 504.908 274.362 504.882ZM233.404 504.947C233.176 504.923 232.947 504.899 232.719 504.874C232.947 504.899 233.176 504.923 233.404 504.947ZM275.742 504.728C275.501 504.756 275.26 504.783 275.019 504.81C275.26 504.783 275.501 504.756 275.742 504.728ZM231.839 504.776C231.734 504.764 231.629 504.753 231.523 504.74C231.629 504.753 231.734 504.764 231.839 504.776ZM277.277 504.544C276.993 504.579 276.708 504.615 276.423 504.649C276.708 504.615 276.993 504.579 277.277 504.544ZM230.712 504.646C230.479 504.618 230.246 504.589 230.014 504.561C230.246 504.589 230.479 504.618 230.712 504.646ZM278.706 504.363C278.405 504.402 278.104 504.441 277.803 504.479C278.104 504.441 278.405 504.402 278.706 504.363ZM229.319 504.474C229.134 504.45 228.949 504.426 228.765 504.403C228.949 504.426 229.134 504.45 229.319 504.474ZM228.092 504.316C227.848 504.283 227.605 504.249 227.361 504.216C227.605 504.249 227.848 504.283 228.092 504.316ZM280.314 504.145C279.946 504.196 279.578 504.248 279.209 504.297C279.578 504.248 279.946 504.196 280.314 504.145ZM226.617 504.114C226.542 504.103 226.467 504.092 226.392 504.081C226.467 504.092 226.542 504.103 226.617 504.114ZM281.753 503.939C281.373 503.995 280.993 504.05 280.612 504.104C280.993 504.05 281.373 503.995 281.753 503.939ZM225.397 503.938C225.202 503.909 225.007 503.879 224.812 503.85C225.007 503.879 225.202 503.909 225.397 503.938ZM223.438 503.638C223.896 503.71 224.353 503.781 224.812 503.85C224.353 503.781 223.896 503.71 223.438 503.638ZM285.595 503.333C284.672 503.488 283.748 503.636 282.822 503.778C283.748 503.636 284.672 503.488 285.595 503.333ZM223.438 503.638C223.226 503.604 223.013 503.572 222.801 503.537C223.013 503.572 223.226 503.604 223.438 503.638ZM286.291 503.215C286.059 503.255 285.827 503.294 285.595 503.333C285.827 503.294 286.059 503.255 286.291 503.215ZM220.638 503.174C220.506 503.151 220.373 503.129 220.241 503.106C220.373 503.129 220.506 503.151 220.638 503.174ZM287.578 502.989C287.345 503.031 287.111 503.072 286.877 503.113C287.111 503.072 287.345 503.031 287.578 502.989ZM218.05 502.708C218.779 502.845 219.51 502.977 220.241 503.106C219.51 502.977 218.779 502.845 218.05 502.708ZM288.966 502.736C288.79 502.768 288.614 502.801 288.438 502.833C288.614 502.801 288.79 502.768 288.966 502.736ZM218.05 502.708C217.912 502.682 217.774 502.656 217.636 502.63C217.774 502.656 217.912 502.682 218.05 502.708ZM290.396 502.463C290.181 502.505 289.966 502.546 289.75 502.587C289.966 502.546 290.181 502.505 290.396 502.463ZM216.687 502.447C216.623 502.435 216.56 502.423 216.496 502.41C216.56 502.423 216.623 502.435 216.687 502.447ZM291.989 502.147C291.677 502.21 291.365 502.273 291.052 502.335C291.365 502.273 291.677 502.21 291.989 502.147ZM215.393 502.192C215.325 502.178 215.258 502.164 215.191 502.151C215.258 502.164 215.325 502.178 215.393 502.192ZM293.268 501.882C292.97 501.945 292.673 502.007 292.375 502.068C292.673 502.007 292.97 501.945 293.268 501.882ZM214.265 501.96C214.116 501.929 213.967 501.898 213.818 501.866C213.967 501.898 214.116 501.929 214.265 501.96ZM211.667 501.402C212.383 501.561 213.1 501.715 213.818 501.866C213.1 501.715 212.383 501.561 211.667 501.402ZM294.381 501.645C294.213 501.681 294.045 501.718 293.877 501.754C294.045 501.718 294.213 501.681 294.381 501.645ZM298.947 500.6C297.431 500.966 295.909 501.314 294.381 501.645C295.909 501.314 297.431 500.966 298.947 500.6ZM211.667 501.402C211.547 501.375 211.428 501.347 211.309 501.321C211.428 501.347 211.547 501.375 211.667 501.402ZM185.162 493.488C193.656 496.693 202.384 499.317 211.309 501.321C202.384 499.317 193.657 496.693 185.162 493.488ZM299.281 500.519C299.17 500.546 299.059 500.573 298.947 500.6C299.059 500.573 299.17 500.546 299.281 500.519ZM300.658 500.178C300.436 500.234 300.214 500.289 299.991 500.344C300.214 500.289 300.436 500.234 300.658 500.178ZM302.143 499.798C301.856 499.873 301.569 499.946 301.281 500.02C301.569 499.946 301.856 499.873 302.143 499.798ZM303.501 499.441C303.161 499.532 302.821 499.621 302.48 499.71C302.821 499.621 303.161 499.532 303.501 499.441ZM304.871 499.068C304.562 499.153 304.252 499.238 303.942 499.322C304.252 499.238 304.562 499.153 304.871 499.068ZM306.242 498.685C305.933 498.772 305.623 498.859 305.313 498.946C305.623 498.859 305.933 498.772 306.242 498.685ZM307.435 498.342C307.193 498.412 306.952 498.482 306.711 498.551C306.952 498.482 307.193 498.412 307.435 498.342ZM308.92 497.905C308.662 497.982 308.403 498.059 308.145 498.135C308.403 498.059 308.662 497.982 308.92 497.905ZM312.112 496.922C311.675 497.061 311.237 497.199 310.798 497.335C311.237 497.199 311.675 497.061 312.112 496.922ZM314.847 496.031C314.521 496.139 314.195 496.248 313.868 496.355C314.195 496.248 314.521 496.139 314.847 496.031ZM316.046 495.625C315.796 495.71 315.546 495.795 315.296 495.879C315.546 495.795 315.796 495.71 316.046 495.625ZM317.366 495.17C317.147 495.247 316.927 495.323 316.707 495.399C316.927 495.323 317.147 495.247 317.366 495.17ZM318.817 494.656C318.595 494.736 318.374 494.815 318.151 494.894C318.374 494.815 318.595 494.736 318.817 494.656ZM320.225 494.147C319.881 494.272 319.538 494.398 319.194 494.522C319.538 494.398 319.881 494.272 320.225 494.147ZM321.475 493.684C321.191 493.79 320.907 493.896 320.622 494.001C320.907 493.896 321.191 493.79 321.475 493.684ZM322.922 493.136C322.602 493.259 322.282 493.38 321.961 493.501C322.282 493.38 322.602 493.259 322.922 493.136ZM185.162 493.488C185.1 493.464 185.038 493.44 184.976 493.416C185.038 493.44 185.1 493.464 185.162 493.488ZM175.844 489.698C178.856 491.013 181.901 492.252 184.976 493.416C181.901 492.252 178.856 491.013 175.844 489.698ZM324.245 492.623C323.912 492.754 323.578 492.884 323.244 493.013C323.578 492.884 323.912 492.754 324.245 492.623ZM324.59 492.489C324.615 492.48 324.639 492.47 324.664 492.46C324.639 492.47 324.615 492.48 324.59 492.489ZM327.158 491.458C326.329 491.798 325.498 492.132 324.664 492.46C325.498 492.132 326.329 491.798 327.158 491.458ZM328.455 490.921C328.221 491.019 327.987 491.115 327.753 491.212C327.987 491.115 328.221 491.019 328.455 490.921ZM329.735 490.381C329.511 490.477 329.287 490.572 329.062 490.666C329.287 490.572 329.511 490.477 329.735 490.381ZM330.978 489.846C330.787 489.929 330.596 490.012 330.404 490.094C330.596 490.012 330.787 489.929 330.978 489.846ZM175.844 489.698C175.812 489.685 175.781 489.671 175.749 489.657C175.781 489.671 175.812 489.685 175.844 489.698ZM317.85 160.728C373.078 160.728 417.85 205.499 417.85 260.728V406C417.85 411.514 417.402 416.924 416.544 422.196C394.837 450.253 367.606 472.658 336.781 487.217V389.08C336.781 358.705 312.157 334.08 281.781 334.08H229.646C199.27 334.08 174.646 358.705 174.646 389.08V489.171C175.013 489.334 175.381 489.497 175.749 489.657C146.307 476.793 119.958 456.844 98.3213 431.648C96.1556 423.463 95 414.866 95 406V260.728C95 205.499 139.772 160.728 195 160.728H317.85ZM332.354 489.242C332.115 489.348 331.875 489.454 331.636 489.559C331.875 489.454 332.115 489.348 332.354 489.242ZM333.517 488.723C333.307 488.817 333.098 488.912 332.889 489.005C333.098 488.912 333.307 488.817 333.517 488.723ZM334.746 488.163C334.598 488.231 334.449 488.301 334.301 488.368C334.449 488.301 334.598 488.231 334.746 488.163ZM282.822 503.778C282.556 503.818 282.291 503.86 282.024 503.9C282.291 503.86 282.556 503.818 282.822 503.778ZM222.801 503.537C222.431 503.478 222.062 503.416 221.693 503.355C222.062 503.416 222.431 503.478 222.801 503.537ZM310.437 497.446C310.078 497.556 309.718 497.665 309.358 497.774C309.718 497.665 310.078 497.556 310.437 497.446ZM313.448 496.491C313.02 496.631 312.591 496.77 312.161 496.906C312.591 496.77 313.02 496.631 313.448 496.491ZM336.336 487.426C336.001 487.583 335.666 487.74 335.331 487.895C335.666 487.74 336.001 487.583 336.336 487.426Z"/>
</mask>
<path d="M251.208 505.985C251.994 505.994 252.781 505.999 253.569 505.999C252.781 505.999 251.994 505.994 251.208 505.985ZM255.024 505.994C254.547 505.998 254.07 505.999 253.592 505.999C254.07 505.999 254.547 505.998 255.024 505.994ZM256.447 505.979C256.18 505.983 255.912 505.985 255.645 505.988C255.912 505.985 256.18 505.983 256.447 505.979ZM251.208 505.985C251.112 505.983 251.016 505.983 250.92 505.982C251.016 505.983 251.112 505.983 251.208 505.985ZM250.223 505.97C249.96 505.965 249.697 505.961 249.435 505.955C249.697 505.961 249.96 505.965 250.223 505.97ZM258.001 505.948C257.699 505.955 257.396 505.962 257.094 505.967C257.396 505.962 257.699 505.955 258.001 505.948ZM249.039 505.946C248.714 505.938 248.388 505.93 248.063 505.921C248.388 505.93 248.714 505.938 249.039 505.946ZM259.388 505.912C259.069 505.922 258.75 505.93 258.431 505.938C258.75 505.93 259.069 505.922 259.388 505.912ZM247.624 505.907C247.3 505.898 246.975 505.887 246.651 505.875C246.975 505.887 247.3 505.898 247.624 505.907ZM260.758 505.866C260.538 505.875 260.317 505.882 260.097 505.889C260.317 505.882 260.538 505.875 260.758 505.866ZM246.257 505.862C245.968 505.851 245.679 505.839 245.39 505.826C245.679 505.839 245.968 505.851 246.257 505.862ZM262.233 505.806C261.987 505.817 261.74 505.828 261.493 505.838C261.74 505.828 261.987 505.817 262.233 505.806ZM244.751 505.798C244.502 505.787 244.252 505.775 244.003 505.763C244.252 505.775 244.502 505.787 244.751 505.798ZM263.79 505.731C263.525 505.745 263.26 505.758 262.995 505.771C263.26 505.758 263.525 505.745 263.79 505.731ZM243.489 505.738C243.169 505.721 242.849 505.703 242.529 505.685C242.849 505.703 243.169 505.721 243.489 505.738ZM265.495 505.633C265.094 505.658 264.693 505.681 264.291 505.703C264.693 505.681 265.094 505.658 265.495 505.633ZM242.132 505.662C241.713 505.638 241.294 505.611 240.875 505.583C241.294 505.611 241.713 505.638 242.132 505.662ZM268.045 505.459C267.272 505.517 266.499 505.571 265.724 505.619C266.499 505.571 267.272 505.517 268.045 505.459ZM240.823 505.58C240.4 505.552 239.977 505.522 239.554 505.491C239.977 505.522 240.4 505.552 240.823 505.58ZM239.404 505.482C238.949 505.448 238.494 505.414 238.039 505.377C238.494 505.414 238.949 505.448 239.404 505.482ZM269.445 505.349C268.979 505.387 268.512 505.424 268.045 505.459C268.512 505.424 268.979 505.387 269.445 505.349ZM237.852 505.361C237.46 505.329 237.069 505.296 236.679 505.262C237.069 505.296 237.46 505.329 237.852 505.361ZM270.098 505.295C269.88 505.314 269.663 505.331 269.445 505.349C269.663 505.331 269.88 505.314 270.098 505.295ZM271.477 505.172C271.192 505.199 270.906 505.224 270.621 505.249C270.906 505.224 271.192 505.199 271.477 505.172ZM236.136 505.213C235.893 505.191 235.651 505.169 235.408 505.146C235.651 505.169 235.893 505.191 236.136 505.213ZM272.851 505.039C272.677 505.057 272.503 505.073 272.329 505.09C272.503 505.073 272.677 505.057 272.851 505.039ZM234.621 505.07C234.436 505.051 234.252 505.034 234.067 505.015C234.252 505.034 234.436 505.051 234.621 505.07ZM274.362 504.882C274.121 504.908 273.879 504.934 273.637 504.959C273.879 504.934 274.121 504.908 274.362 504.882ZM233.404 504.947C233.176 504.923 232.947 504.899 232.719 504.874C232.947 504.899 233.176 504.923 233.404 504.947ZM275.742 504.728C275.501 504.756 275.26 504.783 275.019 504.81C275.26 504.783 275.501 504.756 275.742 504.728ZM231.839 504.776C231.734 504.764 231.629 504.753 231.523 504.74C231.629 504.753 231.734 504.764 231.839 504.776ZM277.277 504.544C276.993 504.579 276.708 504.615 276.423 504.649C276.708 504.615 276.993 504.579 277.277 504.544ZM230.712 504.646C230.479 504.618 230.246 504.589 230.014 504.561C230.246 504.589 230.479 504.618 230.712 504.646ZM278.706 504.363C278.405 504.402 278.104 504.441 277.803 504.479C278.104 504.441 278.405 504.402 278.706 504.363ZM229.319 504.474C229.134 504.45 228.949 504.426 228.765 504.403C228.949 504.426 229.134 504.45 229.319 504.474ZM228.092 504.316C227.848 504.283 227.605 504.249 227.361 504.216C227.605 504.249 227.848 504.283 228.092 504.316ZM280.314 504.145C279.946 504.196 279.578 504.248 279.209 504.297C279.578 504.248 279.946 504.196 280.314 504.145ZM226.617 504.114C226.542 504.103 226.467 504.092 226.392 504.081C226.467 504.092 226.542 504.103 226.617 504.114ZM281.753 503.939C281.373 503.995 280.993 504.05 280.612 504.104C280.993 504.05 281.373 503.995 281.753 503.939ZM225.397 503.938C225.202 503.909 225.007 503.879 224.812 503.85C225.007 503.879 225.202 503.909 225.397 503.938ZM223.438 503.638C223.896 503.71 224.353 503.781 224.812 503.85C224.353 503.781 223.896 503.71 223.438 503.638ZM285.595 503.333C284.672 503.488 283.748 503.636 282.822 503.778C283.748 503.636 284.672 503.488 285.595 503.333ZM223.438 503.638C223.226 503.604 223.013 503.572 222.801 503.537C223.013 503.572 223.226 503.604 223.438 503.638ZM286.291 503.215C286.059 503.255 285.827 503.294 285.595 503.333C285.827 503.294 286.059 503.255 286.291 503.215ZM220.638 503.174C220.506 503.151 220.373 503.129 220.241 503.106C220.373 503.129 220.506 503.151 220.638 503.174ZM287.578 502.989C287.345 503.031 287.111 503.072 286.877 503.113C287.111 503.072 287.345 503.031 287.578 502.989ZM218.05 502.708C218.779 502.845 219.51 502.977 220.241 503.106C219.51 502.977 218.779 502.845 218.05 502.708ZM288.966 502.736C288.79 502.768 288.614 502.801 288.438 502.833C288.614 502.801 288.79 502.768 288.966 502.736ZM218.05 502.708C217.912 502.682 217.774 502.656 217.636 502.63C217.774 502.656 217.912 502.682 218.05 502.708ZM290.396 502.463C290.181 502.505 289.966 502.546 289.75 502.587C289.966 502.546 290.181 502.505 290.396 502.463ZM216.687 502.447C216.623 502.435 216.56 502.423 216.496 502.41C216.56 502.423 216.623 502.435 216.687 502.447ZM291.989 502.147C291.677 502.21 291.365 502.273 291.052 502.335C291.365 502.273 291.677 502.21 291.989 502.147ZM215.393 502.192C215.325 502.178 215.258 502.164 215.191 502.151C215.258 502.164 215.325 502.178 215.393 502.192ZM293.268 501.882C292.97 501.945 292.673 502.007 292.375 502.068C292.673 502.007 292.97 501.945 293.268 501.882ZM214.265 501.96C214.116 501.929 213.967 501.898 213.818 501.866C213.967 501.898 214.116 501.929 214.265 501.96ZM211.667 501.402C212.383 501.561 213.1 501.715 213.818 501.866C213.1 501.715 212.383 501.561 211.667 501.402ZM294.381 501.645C294.213 501.681 294.045 501.718 293.877 501.754C294.045 501.718 294.213 501.681 294.381 501.645ZM298.947 500.6C297.431 500.966 295.909 501.314 294.381 501.645C295.909 501.314 297.431 500.966 298.947 500.6ZM211.667 501.402C211.547 501.375 211.428 501.347 211.309 501.321C211.428 501.347 211.547 501.375 211.667 501.402ZM185.162 493.488C193.656 496.693 202.384 499.317 211.309 501.321C202.384 499.317 193.657 496.693 185.162 493.488ZM299.281 500.519C299.17 500.546 299.059 500.573 298.947 500.6C299.059 500.573 299.17 500.546 299.281 500.519ZM300.658 500.178C300.436 500.234 300.214 500.289 299.991 500.344C300.214 500.289 300.436 500.234 300.658 500.178ZM302.143 499.798C301.856 499.873 301.569 499.946 301.281 500.02C301.569 499.946 301.856 499.873 302.143 499.798ZM303.501 499.441C303.161 499.532 302.821 499.621 302.48 499.71C302.821 499.621 303.161 499.532 303.501 499.441ZM304.871 499.068C304.562 499.153 304.252 499.238 303.942 499.322C304.252 499.238 304.562 499.153 304.871 499.068ZM306.242 498.685C305.933 498.772 305.623 498.859 305.313 498.946C305.623 498.859 305.933 498.772 306.242 498.685ZM307.435 498.342C307.193 498.412 306.952 498.482 306.711 498.551C306.952 498.482 307.193 498.412 307.435 498.342ZM308.92 497.905C308.662 497.982 308.403 498.059 308.145 498.135C308.403 498.059 308.662 497.982 308.92 497.905ZM312.112 496.922C311.675 497.061 311.237 497.199 310.798 497.335C311.237 497.199 311.675 497.061 312.112 496.922ZM314.847 496.031C314.521 496.139 314.195 496.248 313.868 496.355C314.195 496.248 314.521 496.139 314.847 496.031ZM316.046 495.625C315.796 495.71 315.546 495.795 315.296 495.879C315.546 495.795 315.796 495.71 316.046 495.625ZM317.366 495.17C317.147 495.247 316.927 495.323 316.707 495.399C316.927 495.323 317.147 495.247 317.366 495.17ZM318.817 494.656C318.595 494.736 318.374 494.815 318.151 494.894C318.374 494.815 318.595 494.736 318.817 494.656ZM320.225 494.147C319.881 494.272 319.538 494.398 319.194 494.522C319.538 494.398 319.881 494.272 320.225 494.147ZM321.475 493.684C321.191 493.79 320.907 493.896 320.622 494.001C320.907 493.896 321.191 493.79 321.475 493.684ZM322.922 493.136C322.602 493.259 322.282 493.38 321.961 493.501C322.282 493.38 322.602 493.259 322.922 493.136ZM185.162 493.488C185.1 493.464 185.038 493.44 184.976 493.416C185.038 493.44 185.1 493.464 185.162 493.488ZM175.844 489.698C178.856 491.013 181.901 492.252 184.976 493.416C181.901 492.252 178.856 491.013 175.844 489.698ZM324.245 492.623C323.912 492.754 323.578 492.884 323.244 493.013C323.578 492.884 323.912 492.754 324.245 492.623ZM324.59 492.489C324.615 492.48 324.639 492.47 324.664 492.46C324.639 492.47 324.615 492.48 324.59 492.489ZM327.158 491.458C326.329 491.798 325.498 492.132 324.664 492.46C325.498 492.132 326.329 491.798 327.158 491.458ZM328.455 490.921C328.221 491.019 327.987 491.115 327.753 491.212C327.987 491.115 328.221 491.019 328.455 490.921ZM329.735 490.381C329.511 490.477 329.287 490.572 329.062 490.666C329.287 490.572 329.511 490.477 329.735 490.381ZM330.978 489.846C330.787 489.929 330.596 490.012 330.404 490.094C330.596 490.012 330.787 489.929 330.978 489.846ZM175.844 489.698C175.812 489.685 175.781 489.671 175.749 489.657C175.781 489.671 175.812 489.685 175.844 489.698ZM317.85 160.728C373.078 160.728 417.85 205.499 417.85 260.728V406C417.85 411.514 417.402 416.924 416.544 422.196C394.837 450.253 367.606 472.658 336.781 487.217V389.08C336.781 358.705 312.157 334.08 281.781 334.08H229.646C199.27 334.08 174.646 358.705 174.646 389.08V489.171C175.013 489.334 175.381 489.497 175.749 489.657C146.307 476.793 119.958 456.844 98.3213 431.648C96.1556 423.463 95 414.866 95 406V260.728C95 205.499 139.772 160.728 195 160.728H317.85ZM332.354 489.242C332.115 489.348 331.875 489.454 331.636 489.559C331.875 489.454 332.115 489.348 332.354 489.242ZM333.517 488.723C333.307 488.817 333.098 488.912 332.889 489.005C333.098 488.912 333.307 488.817 333.517 488.723ZM334.746 488.163C334.598 488.231 334.449 488.301 334.301 488.368C334.449 488.301 334.598 488.231 334.746 488.163ZM282.822 503.778C282.556 503.818 282.291 503.86 282.024 503.9C282.291 503.86 282.556 503.818 282.822 503.778ZM222.801 503.537C222.431 503.478 222.062 503.416 221.693 503.355C222.062 503.416 222.431 503.478 222.801 503.537ZM310.437 497.446C310.078 497.556 309.718 497.665 309.358 497.774C309.718 497.665 310.078 497.556 310.437 497.446ZM313.448 496.491C313.02 496.631 312.591 496.77 312.161 496.906C312.591 496.77 313.02 496.631 313.448 496.491ZM336.336 487.426C336.001 487.583 335.666 487.74 335.331 487.895C335.666 487.74 336.001 487.583 336.336 487.426Z" fill="url(#paint0_linear_1_3)"/>
<path d="M251.208 505.985L251.184 507.984L251.208 505.985ZM245.39 505.826L245.474 503.828L245.305 507.825L245.39 505.826ZM244.751 505.798L244.66 507.796L244.842 503.8L244.751 505.798ZM244.003 505.763L244.102 503.765L243.904 507.76L244.003 505.763ZM243.489 505.738L243.385 507.735L243.593 503.74L243.489 505.738ZM242.529 505.685L242.643 503.688L242.415 507.682L242.529 505.685ZM242.132 505.662L242.014 507.659L242.25 503.666L242.132 505.662ZM240.875 505.583L241.006 503.588L240.744 507.579L240.875 505.583ZM268.045 505.459L267.896 503.465L268.045 505.459ZM240.823 505.58L240.692 507.576L240.955 503.585L240.823 505.58ZM239.554 505.491L239.698 503.497L239.409 507.486L239.554 505.491ZM239.404 505.482L239.258 507.476L239.551 503.487L239.404 505.482ZM238.039 505.377L238.199 503.384L237.879 507.371L238.039 505.377ZM269.445 505.349L269.609 507.342L269.445 505.349ZM237.852 505.361L237.689 507.354L238.014 503.367L237.852 505.361ZM236.679 505.262L236.853 503.27L236.504 507.254L236.679 505.262ZM236.136 505.213L235.956 507.205L236.316 503.221L236.136 505.213ZM235.408 505.146L235.596 503.155L235.221 507.137L235.408 505.146ZM234.621 505.07L234.425 507.06L234.817 503.079L234.621 505.07ZM234.067 505.015L234.269 503.025L233.866 507.005L234.067 505.015ZM233.404 504.947L233.196 506.936L233.613 502.957L233.404 504.947ZM232.719 504.874L232.934 502.886L232.503 506.863L232.719 504.874ZM231.839 504.776L231.614 506.763L232.064 502.788L231.839 504.776ZM231.523 504.74L231.751 502.754L231.295 506.727L231.523 504.74ZM230.712 504.646L230.475 506.632L230.948 502.66L230.712 504.646ZM230.014 504.561L230.257 502.576L229.77 506.546L230.014 504.561ZM229.319 504.474L229.068 506.458L229.57 502.49L229.319 504.474ZM228.765 504.403L229.021 502.419L228.508 506.386L228.765 504.403ZM228.092 504.316L227.828 506.298L228.356 502.333L228.092 504.316ZM227.361 504.216L227.633 502.235L227.09 506.198L227.361 504.216ZM226.617 504.114L226.338 506.094L226.896 502.133L226.617 504.114ZM226.392 504.081L226.673 502.101L226.11 506.061L226.392 504.081ZM225.397 503.938L225.106 505.916L225.689 501.959L225.397 503.938ZM285.595 503.333L285.263 501.361L285.595 503.333ZM282.822 503.778L282.52 501.801L282.822 503.778ZM220.638 503.174L220.297 505.145L220.979 501.203L220.638 503.174ZM217.636 502.63L218.008 500.665L217.263 504.595L217.636 502.63ZM216.687 502.447L216.304 504.411L217.069 500.484L216.687 502.447ZM216.496 502.41L216.88 500.448L216.112 504.373L216.496 502.41ZM215.393 502.192L214.997 504.152L215.788 500.231L215.393 502.192ZM215.191 502.151L215.589 500.191L214.794 504.111L215.191 502.151ZM214.265 501.96L213.857 503.918L214.672 500.002L214.265 501.96ZM294.381 501.645L293.958 499.69L294.381 501.645ZM298.947 500.6L299.417 502.544L298.947 500.6ZM314.847 496.031L315.48 497.928L314.213 494.133L314.847 496.031ZM313.868 496.355L313.245 494.454L314.492 498.255L313.868 496.355ZM316.046 495.625L316.692 497.518L315.4 493.732L316.046 495.625ZM315.296 495.879L314.658 493.984L315.934 497.775L315.296 495.879ZM317.366 495.17L318.025 497.058L316.707 493.282L317.366 495.17ZM316.707 495.399L316.055 493.508L317.359 497.289L316.707 495.399ZM318.817 494.656L319.491 496.54L318.143 492.773L318.817 494.656ZM318.151 494.894L317.484 493.008L318.818 496.779L318.151 494.894ZM320.225 494.147L320.913 496.025L319.536 492.269L320.225 494.147ZM319.194 494.522L318.517 492.64L319.872 496.403L319.194 494.522ZM321.475 493.684L322.175 495.557L320.774 491.811L321.475 493.684ZM320.622 494.001L319.93 492.125L321.314 495.878L320.622 494.001ZM322.922 493.136L323.637 495.004L322.206 491.268L322.922 493.136ZM321.961 493.501L321.255 491.63L322.667 495.373L321.961 493.501ZM175.844 489.698L175.044 491.532L175.844 489.698ZM324.245 492.623L324.974 494.486L323.516 490.761L324.245 492.623ZM323.244 493.013L322.525 491.147L323.963 494.879L323.244 493.013ZM324.59 492.489L323.858 490.628L325.322 494.351L324.59 492.489ZM327.158 491.458L327.916 493.309L326.4 489.608L327.158 491.458ZM328.455 490.921L329.226 492.766L327.684 489.076L328.455 490.921ZM327.753 491.212L326.989 489.364L328.517 493.06L327.753 491.212ZM329.735 490.381L330.519 492.221L328.951 488.541L329.735 490.381ZM329.062 490.666L328.285 488.823L329.84 492.509L329.062 490.666ZM330.978 489.846L331.774 491.681L330.181 488.011L330.978 489.846ZM330.404 490.094L329.614 488.257L331.195 491.931L330.404 490.094ZM175.749 489.657L176.55 487.825L175.749 489.657ZM416.544 422.196L418.126 423.419L418.436 423.018L418.518 422.517L416.544 422.196ZM336.781 487.217H334.781V490.374L337.635 489.025L336.781 487.217ZM229.646 334.08L229.646 332.08L229.645 332.08L229.646 334.08ZM174.646 489.171H172.646V490.471L173.834 490.999L174.646 489.171ZM98.3213 431.648L96.3878 432.159L96.5051 432.603L96.804 432.951L98.3213 431.648ZM95 406L93 406L93 406L95 406ZM332.354 489.242L333.165 491.071L331.544 487.414L332.354 489.242ZM331.636 489.559L330.833 487.727L332.439 491.391L331.636 489.559ZM333.517 488.723L334.338 490.546L332.695 486.9L333.517 488.723ZM332.889 489.005L332.073 487.179L333.704 490.831L332.889 489.005ZM334.746 488.163L335.58 489.981L333.912 486.345L334.746 488.163ZM334.301 488.368L333.471 486.549L335.13 490.188L334.301 488.368ZM221.693 503.355L222.024 501.382L221.363 505.327L221.693 503.355ZM336.336 487.426L337.186 489.237L335.486 485.616L336.336 487.426ZM335.331 487.895L334.491 486.08L336.171 489.71L335.331 487.895ZM251.208 505.985L251.184 507.984C251.977 507.994 252.773 507.999 253.569 507.999L253.569 505.999L253.569 503.999C252.79 503.999 252.011 503.994 251.232 503.985L251.208 505.985ZM253.569 505.999L253.569 503.999C252.79 503.999 252.011 503.994 251.232 503.985L251.208 505.985L251.184 507.984C251.977 507.994 252.773 507.999 253.569 507.999L253.569 505.999ZM255.024 505.994L255.01 503.994C254.539 503.998 254.066 503.999 253.592 503.999L253.592 505.999L253.592 507.999C254.073 507.999 254.556 507.998 255.039 507.994L255.024 505.994ZM253.592 505.999L253.592 507.999C254.073 507.999 254.556 507.998 255.039 507.994L255.024 505.994L255.01 503.994C254.539 503.998 254.066 503.999 253.592 503.999L253.592 505.999ZM256.447 505.979L256.418 503.979C256.156 503.983 255.899 503.985 255.623 503.988L255.645 505.988L255.666 507.987C255.925 507.985 256.204 507.983 256.477 507.979L256.447 505.979ZM255.645 505.988L255.666 507.987C255.925 507.985 256.204 507.983 256.477 507.979L256.447 505.979L256.418 503.979C256.156 503.983 255.899 503.985 255.623 503.988L255.645 505.988ZM251.208 505.985L251.232 503.985C251.096 503.983 251.062 503.983 250.947 503.982L250.92 505.982L250.893 507.981C250.97 507.983 251.128 507.984 251.184 507.984L251.208 505.985ZM250.92 505.982L250.893 507.981C250.97 507.983 251.128 507.984 251.184 507.984L251.208 505.985L251.232 503.985C251.096 503.983 251.062 503.983 250.947 503.982L250.92 505.982ZM250.223 505.97L250.257 503.97C249.994 503.966 249.735 503.961 249.477 503.956L249.435 505.955L249.392 507.955C249.659 507.961 249.926 507.965 250.188 507.97L250.223 505.97ZM249.435 505.955L249.392 507.955C249.659 507.961 249.926 507.965 250.188 507.97L250.223 505.97L250.257 503.97C249.994 503.966 249.735 503.961 249.477 503.956L249.435 505.955ZM258.001 505.948L257.956 503.949C257.656 503.956 257.357 503.962 257.058 503.967L257.094 505.967L257.13 507.967C257.436 507.961 257.741 507.955 258.046 507.948L258.001 505.948ZM257.094 505.967L257.13 507.967C257.436 507.961 257.741 507.955 258.046 507.948L258.001 505.948L257.956 503.949C257.656 503.956 257.357 503.962 257.058 503.967L257.094 505.967ZM249.039 505.946L249.086 503.946C248.76 503.938 248.439 503.931 248.12 503.922L248.063 505.921L248.007 507.92C248.338 507.93 248.668 507.937 248.992 507.945L249.039 505.946ZM248.063 505.921L248.007 507.92C248.338 507.93 248.668 507.937 248.992 507.945L249.039 505.946L249.086 503.946C248.76 503.938 248.439 503.931 248.12 503.922L248.063 505.921ZM259.388 505.912L259.328 503.913C259.015 503.923 258.701 503.93 258.381 503.938L258.431 505.938L258.481 507.937C258.799 507.929 259.123 507.921 259.447 507.911L259.388 505.912ZM258.431 505.938L258.481 507.937C258.799 507.929 259.123 507.921 259.447 507.911L259.388 505.912L259.328 503.913C259.015 503.923 258.701 503.93 258.381 503.938L258.431 505.938ZM247.624 505.907L247.685 503.908C247.364 503.899 247.043 503.888 246.723 503.876L246.651 505.875L246.58 507.874C246.908 507.886 247.235 507.896 247.563 507.907L247.624 505.907ZM246.651 505.875L246.58 507.874C246.908 507.886 247.235 507.896 247.563 507.907L247.624 505.907L247.685 503.908C247.364 503.899 247.043 503.888 246.723 503.876L246.651 505.875ZM260.758 505.866L260.684 503.868C260.468 503.876 260.256 503.882 260.03 503.89L260.097 505.889L260.164 507.888C260.379 507.881 260.607 507.873 260.832 507.865L260.758 505.866ZM260.097 505.889L260.164 507.888C260.379 507.881 260.607 507.873 260.832 507.865L260.758 505.866L260.684 503.868C260.468 503.876 260.256 503.882 260.03 503.89L260.097 505.889ZM246.257 505.862L246.332 503.863C246.048 503.852 245.763 503.84 245.474 503.828L245.39 505.826L245.305 507.825C245.594 507.837 245.887 507.849 246.181 507.86L246.257 505.862ZM245.39 505.826L245.305 507.825C245.594 507.837 245.887 507.849 246.181 507.86L246.257 505.862L246.332 503.863C246.048 503.852 245.763 503.84 245.474 503.828L245.39 505.826ZM262.233 505.806L262.144 503.808C261.896 503.819 261.654 503.83 261.412 503.84L261.493 505.838L261.575 507.836C261.826 507.826 262.078 507.815 262.322 507.804L262.233 505.806ZM261.493 505.838L261.575 507.836C261.826 507.826 262.078 507.815 262.322 507.804L262.233 505.806L262.144 503.808C261.896 503.819 261.654 503.83 261.412 503.84L261.493 505.838ZM244.751 505.798L244.842 503.8C244.593 503.789 244.347 503.777 244.102 503.765L244.003 505.763L243.904 507.76C244.158 507.773 244.41 507.785 244.66 507.796L244.751 505.798ZM244.003 505.763L243.904 507.76C244.158 507.773 244.41 507.785 244.66 507.796L244.751 505.798L244.842 503.8C244.593 503.789 244.347 503.777 244.102 503.765L244.003 505.763ZM263.79 505.731L263.685 503.733C263.424 503.747 263.161 503.76 262.898 503.773L262.995 505.771L263.092 507.768C263.359 507.755 263.627 507.742 263.895 507.728L263.79 505.731ZM262.995 505.771L263.092 507.768C263.359 507.755 263.627 507.742 263.895 507.728L263.79 505.731L263.685 503.733C263.424 503.747 263.161 503.76 262.898 503.773L262.995 505.771ZM243.489 505.738L243.593 503.74C243.278 503.724 242.961 503.706 242.643 503.688L242.529 505.685L242.415 507.682C242.737 507.7 243.06 507.718 243.385 507.735L243.489 505.738ZM242.529 505.685L242.415 507.682C242.737 507.7 243.06 507.718 243.385 507.735L243.489 505.738L243.593 503.74C243.278 503.724 242.961 503.706 242.643 503.688L242.529 505.685ZM265.495 505.633L265.372 503.637C264.975 503.661 264.578 503.684 264.181 503.706L264.291 505.703L264.401 507.7C264.807 507.678 265.213 507.654 265.618 507.629L265.495 505.633ZM264.291 505.703L264.401 507.7C264.807 507.678 265.213 507.654 265.618 507.629L265.495 505.633L265.372 503.637C264.975 503.661 264.578 503.684 264.181 503.706L264.291 505.703ZM242.132 505.662L242.25 503.666C241.837 503.641 241.423 503.615 241.006 503.588L240.875 505.583L240.744 507.579C241.164 507.607 241.588 507.634 242.014 507.659L242.132 505.662ZM240.875 505.583L240.744 507.579C241.164 507.607 241.588 507.634 242.014 507.659L242.132 505.662L242.25 503.666C241.837 503.641 241.423 503.615 241.006 503.588L240.875 505.583ZM268.045 505.459L267.896 503.465C267.13 503.522 266.364 503.575 265.598 503.623L265.724 505.619L265.849 507.615C266.633 507.566 267.414 507.512 268.194 507.454L268.045 505.459ZM265.724 505.619L265.849 507.615C266.633 507.566 267.414 507.512 268.194 507.454L268.045 505.459L267.896 503.465C267.13 503.522 266.364 503.575 265.598 503.623L265.724 505.619ZM240.823 505.58L240.955 503.585C240.538 503.557 240.121 503.527 239.698 503.497L239.554 505.491L239.409 507.486C239.833 507.517 240.261 507.548 240.692 507.576L240.823 505.58ZM239.554 505.491L239.409 507.486C239.833 507.517 240.261 507.548 240.692 507.576L240.823 505.58L240.955 503.585C240.538 503.557 240.121 503.527 239.698 503.497L239.554 505.491ZM239.404 505.482L239.551 503.487C239.098 503.454 238.648 503.42 238.199 503.384L238.039 505.377L237.879 507.371C238.339 507.408 238.799 507.443 239.258 507.476L239.404 505.482ZM238.039 505.377L237.879 507.371C238.339 507.408 238.799 507.443 239.258 507.476L239.404 505.482L239.551 503.487C239.098 503.454 238.648 503.42 238.199 503.384L238.039 505.377ZM269.445 505.349L269.282 503.356C268.819 503.394 268.357 503.43 267.896 503.465L268.045 505.459L268.194 507.454C268.667 507.418 269.139 507.381 269.609 507.342L269.445 505.349ZM268.045 505.459L268.194 507.454C268.667 507.418 269.139 507.381 269.609 507.342L269.445 505.349L269.282 503.356C268.819 503.394 268.357 503.43 267.896 503.465L268.045 505.459ZM237.852 505.361L238.014 503.367C237.625 503.336 237.238 503.303 236.853 503.27L236.679 505.262L236.504 507.254C236.9 507.289 237.296 507.322 237.689 507.354L237.852 505.361ZM236.679 505.262L236.504 507.254C236.9 507.289 237.296 507.322 237.689 507.354L237.852 505.361L238.014 503.367C237.625 503.336 237.238 503.303 236.853 503.27L236.679 505.262ZM270.098 505.295L269.927 503.302C269.714 503.321 269.507 503.337 269.282 503.356L269.445 505.349L269.609 507.342C269.819 507.325 270.047 507.307 270.268 507.288L270.098 505.295ZM269.445 505.349L269.609 507.342C269.819 507.325 270.047 507.307 270.268 507.288L270.098 505.295L269.927 503.302C269.714 503.321 269.507 503.337 269.282 503.356L269.445 505.349ZM271.477 505.172L271.292 503.181C271.011 503.207 270.729 503.232 270.445 503.257L270.621 505.249L270.797 507.242C271.084 507.216 271.372 507.19 271.661 507.164L271.477 505.172ZM270.621 505.249L270.797 507.242C271.084 507.216 271.372 507.19 271.661 507.164L271.477 505.172L271.292 503.181C271.011 503.207 270.729 503.232 270.445 503.257L270.621 505.249ZM236.136 505.213L236.316 503.221C236.077 503.2 235.837 503.177 235.596 503.155L235.408 505.146L235.221 507.137C235.464 507.16 235.71 507.183 235.956 507.205L236.136 505.213ZM235.408 505.146L235.221 507.137C235.464 507.16 235.709 507.183 235.956 507.205L236.136 505.213L236.316 503.221C236.077 503.2 235.837 503.177 235.596 503.155L235.408 505.146ZM272.851 505.039L272.652 503.049C272.481 503.066 272.316 503.082 272.135 503.099L272.329 505.09L272.523 507.081C272.69 507.064 272.873 507.047 273.05 507.029L272.851 505.039ZM272.329 505.09L272.523 507.081C272.69 507.064 272.873 507.047 273.05 507.029L272.851 505.039L272.652 503.049C272.481 503.066 272.316 503.082 272.135 503.099L272.329 505.09ZM234.621 505.07L234.817 503.079C234.627 503.061 234.45 503.043 234.269 503.025L234.067 505.015L233.866 507.005C234.054 507.024 234.245 507.042 234.425 507.06L234.621 505.07ZM234.067 505.015L233.866 507.005C234.054 507.024 234.245 507.042 234.425 507.06L234.621 505.07L234.817 503.079C234.628 503.061 234.45 503.043 234.269 503.025L234.067 505.015ZM274.362 504.882L274.148 502.894C273.907 502.92 273.668 502.945 273.429 502.97L273.637 504.959L273.844 506.948C274.089 506.923 274.334 506.897 274.577 506.871L274.362 504.882ZM273.637 504.959L273.844 506.948C274.089 506.923 274.334 506.897 274.577 506.871L274.362 504.882L274.148 502.894C273.907 502.92 273.668 502.945 273.429 502.97L273.637 504.959ZM233.404 504.947L233.613 502.957C233.379 502.933 233.158 502.91 232.934 502.886L232.719 504.874L232.503 506.863C232.736 506.888 232.972 506.912 233.196 506.936L233.404 504.947ZM232.719 504.874L232.503 506.863C232.736 506.888 232.972 506.912 233.196 506.936L233.404 504.947L233.613 502.957C233.379 502.933 233.158 502.91 232.934 502.886L232.719 504.874ZM275.742 504.728L275.513 502.741C275.275 502.768 275.036 502.795 274.797 502.822L275.019 504.81L275.24 506.797C275.484 506.77 275.728 506.743 275.971 506.715L275.742 504.728ZM275.019 504.81L275.24 506.797C275.484 506.77 275.728 506.743 275.971 506.715L275.742 504.728L275.513 502.741C275.275 502.768 275.036 502.795 274.797 502.822L275.019 504.81ZM231.839 504.776L232.064 502.788C231.928 502.773 231.867 502.767 231.751 502.754L231.523 504.74L231.295 506.727C231.39 506.738 231.539 506.754 231.614 506.763L231.839 504.776ZM231.523 504.74L231.295 506.727C231.39 506.738 231.539 506.754 231.614 506.763L231.839 504.776L232.064 502.788C231.928 502.773 231.867 502.767 231.751 502.754L231.523 504.74ZM277.277 504.544L277.032 502.559C276.745 502.595 276.466 502.629 276.187 502.663L276.423 504.649L276.659 506.635C276.95 506.6 277.241 506.564 277.522 506.529L277.277 504.544ZM276.423 504.649L276.659 506.635C276.95 506.6 277.241 506.564 277.522 506.529L277.277 504.544L277.032 502.559C276.745 502.595 276.466 502.629 276.187 502.663L276.423 504.649ZM230.712 504.646L230.948 502.66C230.72 502.633 230.491 502.604 230.257 502.576L230.014 504.561L229.77 506.546C230.001 506.574 230.238 506.603 230.475 506.632L230.712 504.646ZM230.014 504.561L229.77 506.546C230.001 506.574 230.238 506.603 230.475 506.632L230.712 504.646L230.948 502.66C230.72 502.633 230.492 502.604 230.257 502.576L230.014 504.561ZM278.706 504.363L278.446 502.379C278.148 502.419 277.85 502.457 277.552 502.494L277.803 504.479L278.053 506.463C278.358 506.425 278.662 506.385 278.966 506.346L278.706 504.363ZM277.803 504.479L278.053 506.463C278.358 506.425 278.662 506.385 278.966 506.346L278.706 504.363L278.446 502.379C278.148 502.419 277.85 502.457 277.552 502.494L277.803 504.479ZM229.319 504.474L229.57 502.49C229.389 502.467 229.207 502.443 229.021 502.419L228.765 504.403L228.508 506.386C228.692 506.41 228.88 506.434 229.068 506.458L229.319 504.474ZM228.765 504.403L228.508 506.386C228.692 506.41 228.88 506.434 229.068 506.458L229.319 504.474L229.57 502.49C229.389 502.467 229.207 502.443 229.021 502.419L228.765 504.403ZM228.092 504.316L228.356 502.333C228.117 502.301 227.882 502.269 227.633 502.235L227.361 504.216L227.09 506.198C227.328 506.23 227.579 506.265 227.828 506.298L228.092 504.316ZM227.361 504.216L227.09 506.198C227.328 506.23 227.579 506.265 227.828 506.298L228.092 504.316L228.355 502.333C228.117 502.301 227.882 502.269 227.633 502.235L227.361 504.216ZM280.314 504.145L280.038 502.164C279.668 502.216 279.306 502.266 278.944 502.315L279.209 504.297L279.474 506.279C279.85 506.229 280.225 506.177 280.591 506.126L280.314 504.145ZM279.209 504.297L279.474 506.279C279.85 506.229 280.225 506.177 280.591 506.126L280.314 504.145L280.038 502.164C279.668 502.216 279.306 502.266 278.944 502.315L279.209 504.297ZM226.617 504.114L226.896 502.133C226.818 502.122 226.761 502.114 226.673 502.101L226.392 504.081L226.11 506.061C226.172 506.07 226.266 506.084 226.338 506.094L226.617 504.114ZM226.392 504.081L226.11 506.061C226.172 506.07 226.266 506.084 226.338 506.094L226.617 504.114L226.896 502.133C226.818 502.122 226.762 502.114 226.673 502.101L226.392 504.081ZM281.753 503.939L281.461 501.96C281.084 502.016 280.708 502.07 280.333 502.123L280.612 504.104L280.892 506.084C281.278 506.03 281.662 505.974 282.045 505.917L281.753 503.939ZM280.612 504.104L280.892 506.084C281.278 506.03 281.662 505.974 282.045 505.917L281.753 503.939L281.461 501.96C281.084 502.016 280.708 502.07 280.333 502.123L280.612 504.104ZM225.397 503.938L225.689 501.959C225.498 501.931 225.308 501.902 225.109 501.872L224.812 503.85L224.514 505.828C224.705 505.856 224.906 505.887 225.106 505.916L225.397 503.938ZM224.812 503.85L224.514 505.828C224.705 505.856 224.906 505.887 225.106 505.916L225.397 503.938L225.689 501.959C225.498 501.931 225.308 501.902 225.109 501.872L224.812 503.85ZM223.438 503.638L223.126 505.613C223.588 505.686 224.051 505.758 224.514 505.828L224.812 503.85L225.109 501.872C224.656 501.804 224.203 501.734 223.751 501.662L223.438 503.638ZM224.812 503.85L225.109 501.872C224.656 501.804 224.203 501.734 223.751 501.662L223.438 503.638L223.126 505.613C223.588 505.686 224.051 505.758 224.514 505.828L224.812 503.85ZM285.595 503.333L285.263 501.361C284.352 501.514 283.437 501.66 282.52 501.801L282.822 503.778L283.125 505.755C284.059 505.611 284.993 505.462 285.926 505.306L285.595 503.333ZM282.822 503.778L283.125 505.755C284.059 505.611 284.993 505.462 285.926 505.306L285.595 503.333L285.263 501.361C284.352 501.514 283.437 501.66 282.52 501.801L282.822 503.778ZM223.438 503.638L223.751 501.662C223.526 501.627 223.329 501.597 223.12 501.563L222.801 503.537L222.482 505.512C222.698 505.547 222.926 505.582 223.126 505.613L223.438 503.638ZM222.801 503.537L222.482 505.512C222.698 505.547 222.926 505.582 223.126 505.613L223.438 503.638L223.751 501.662C223.526 501.627 223.329 501.597 223.119 501.563L222.801 503.537ZM286.291 503.215L285.952 501.244C285.724 501.283 285.494 501.322 285.263 501.361L285.595 503.333L285.926 505.306C286.16 505.266 286.394 505.227 286.63 505.186L286.291 503.215ZM285.595 503.333L285.926 505.306C286.16 505.266 286.394 505.227 286.63 505.186L286.291 503.215L285.952 501.244C285.724 501.283 285.494 501.322 285.263 501.361L285.595 503.333ZM220.638 503.174L220.979 501.203C220.832 501.178 220.719 501.159 220.587 501.136L220.241 503.106L219.896 505.076C220.027 505.099 220.179 505.124 220.296 505.145L220.638 503.174ZM220.241 503.106L219.896 505.076C220.028 505.099 220.178 505.124 220.297 505.145L220.638 503.174L220.979 501.203C220.833 501.178 220.719 501.159 220.587 501.136L220.241 503.106ZM287.578 502.989L287.226 501.021C286.997 501.062 286.772 501.1 286.532 501.142L286.877 503.113L287.222 505.083C287.449 505.043 287.692 505.001 287.93 504.958L287.578 502.989ZM286.877 503.113L287.222 505.083C287.449 505.043 287.692 505.001 287.93 504.958L287.578 502.989L287.226 501.021C286.997 501.062 286.772 501.1 286.532 501.142L286.877 503.113ZM218.05 502.708L217.682 504.674C218.418 504.812 219.156 504.946 219.896 505.076L220.241 503.106L220.587 501.136C219.863 501.009 219.14 500.878 218.418 500.742L218.05 502.708ZM220.241 503.106L220.587 501.136C219.863 501.009 219.14 500.878 218.418 500.742L218.05 502.708L217.682 504.674C218.418 504.812 219.156 504.946 219.896 505.076L220.241 503.106ZM288.966 502.736L288.599 500.769C288.426 500.802 288.251 500.834 288.076 500.866L288.438 502.833L288.799 504.8C288.976 504.768 289.154 504.735 289.332 504.702L288.966 502.736ZM288.438 502.833L288.799 504.8C288.976 504.768 289.154 504.735 289.332 504.702L288.966 502.736L288.599 500.769C288.426 500.802 288.251 500.834 288.076 500.866L288.438 502.833ZM218.05 502.708L218.418 500.742C218.282 500.717 218.146 500.691 218.008 500.665L217.636 502.63L217.263 504.595C217.401 504.621 217.541 504.648 217.682 504.674L218.05 502.708ZM217.636 502.63L217.263 504.595C217.401 504.621 217.541 504.648 217.682 504.674L218.05 502.708L218.418 500.742C218.282 500.717 218.146 500.691 218.008 500.665L217.636 502.63ZM290.396 502.463L290.015 500.5C289.804 500.541 289.592 500.581 289.375 500.623L289.75 502.587L290.125 504.552C290.339 504.511 290.559 504.469 290.778 504.426L290.396 502.463ZM289.75 502.587L290.125 504.552C290.339 504.511 290.559 504.469 290.778 504.426L290.396 502.463L290.015 500.5C289.804 500.541 289.592 500.581 289.375 500.623L289.75 502.587ZM216.687 502.447L217.069 500.484C217.004 500.472 216.942 500.46 216.88 500.448L216.496 502.41L216.112 504.373C216.177 504.386 216.242 504.399 216.304 504.411L216.687 502.447ZM216.496 502.41L216.112 504.373C216.177 504.386 216.242 504.399 216.304 504.411L216.687 502.447L217.069 500.484C217.004 500.472 216.942 500.46 216.88 500.448L216.496 502.41ZM291.989 502.147L291.591 500.187C291.28 500.25 290.971 500.312 290.664 500.373L291.052 502.335L291.44 504.297C291.758 504.234 292.074 504.17 292.387 504.107L291.989 502.147ZM291.052 502.335L291.44 504.297C291.758 504.234 292.074 504.17 292.387 504.107L291.989 502.147L291.591 500.187C291.28 500.25 290.971 500.312 290.664 500.373L291.052 502.335ZM215.393 502.192L215.788 500.231C215.716 500.217 215.672 500.207 215.589 500.191L215.191 502.151L214.794 504.111C214.845 504.121 214.935 504.14 214.997 504.152L215.393 502.192ZM215.191 502.151L214.794 504.111C214.844 504.121 214.935 504.14 214.997 504.152L215.393 502.192L215.788 500.231C215.716 500.217 215.673 500.208 215.589 500.191L215.191 502.151ZM293.268 501.882L292.856 499.925C292.561 499.987 292.267 500.048 291.973 500.108L292.375 502.068L292.777 504.027C293.079 503.965 293.379 503.902 293.679 503.839L293.268 501.882ZM292.375 502.068L292.777 504.027C293.079 503.965 293.379 503.902 293.679 503.839L293.268 501.882L292.856 499.925C292.561 499.987 292.267 500.048 291.973 500.108L292.375 502.068ZM214.265 501.96L214.672 500.002C214.526 499.972 214.382 499.941 214.23 499.909L213.818 501.866L213.406 503.824C213.552 503.854 213.705 503.887 213.857 503.918L214.265 501.96ZM213.818 501.866L213.406 503.824C213.552 503.854 213.705 503.887 213.857 503.918L214.265 501.96L214.672 500.002C214.526 499.972 214.382 499.941 214.23 499.909L213.818 501.866ZM211.667 501.402L211.233 503.354C211.957 503.515 212.682 503.671 213.406 503.824L213.818 501.866L214.23 499.909C213.518 499.759 212.808 499.607 212.101 499.449L211.667 501.402ZM213.818 501.866L214.23 499.909C213.518 499.759 212.808 499.607 212.101 499.449L211.667 501.402L211.233 503.354C211.957 503.515 212.682 503.671 213.406 503.824L213.818 501.866ZM294.381 501.645L293.958 499.69C293.774 499.73 293.627 499.762 293.459 499.798L293.877 501.754L294.294 503.71C294.463 503.674 294.652 503.632 294.804 503.6L294.381 501.645ZM293.877 501.754L294.294 503.71C294.463 503.674 294.652 503.632 294.804 503.6L294.381 501.645L293.958 499.69C293.774 499.73 293.627 499.762 293.459 499.798L293.877 501.754ZM298.947 500.6L298.477 498.656C296.977 499.019 295.471 499.363 293.958 499.69L294.381 501.645L294.804 503.6C296.347 503.266 297.885 502.914 299.417 502.544L298.947 500.6ZM294.381 501.645L294.804 503.6C296.347 503.266 297.885 502.914 299.417 502.544L298.947 500.6L298.477 498.656C296.977 499.019 295.471 499.363 293.958 499.69L294.381 501.645ZM211.667 501.402L212.101 499.449C211.973 499.421 211.895 499.402 211.747 499.369L211.309 501.321L210.871 503.272C210.961 503.292 211.122 503.329 211.233 503.354L211.667 501.402ZM211.309 501.321L210.871 503.272C210.961 503.292 211.122 503.329 211.233 503.354L211.667 501.402L212.101 499.449C211.973 499.421 211.895 499.402 211.747 499.369L211.309 501.321ZM185.162 493.488L184.456 495.359C193.037 498.597 201.854 501.248 210.871 503.272L211.309 501.321L211.747 499.369C202.915 497.387 194.276 494.79 185.868 491.616L185.162 493.488ZM211.309 501.321L211.747 499.369C202.915 497.387 194.277 494.789 185.868 491.616L185.162 493.488L184.456 495.359C193.037 498.597 201.854 501.248 210.871 503.272L211.309 501.321ZM299.281 500.519L298.808 498.576C298.698 498.602 298.588 498.629 298.477 498.656L298.947 500.6L299.417 502.544C299.53 502.517 299.642 502.489 299.755 502.462L299.281 500.519ZM298.947 500.6L299.417 502.544C299.53 502.517 299.642 502.489 299.755 502.462L299.281 500.519L298.808 498.576C298.698 498.602 298.588 498.629 298.477 498.656L298.947 500.6ZM300.658 500.178L300.17 498.238C299.952 498.293 299.734 498.347 299.51 498.403L299.991 500.344L300.472 502.285C300.694 502.23 300.92 502.174 301.146 502.118L300.658 500.178ZM299.991 500.344L300.472 502.285C300.694 502.23 300.92 502.174 301.146 502.118L300.658 500.178L300.17 498.238C299.952 498.293 299.734 498.347 299.51 498.403L299.991 500.344ZM302.143 499.798L301.64 497.862C301.356 497.936 301.072 498.009 300.787 498.082L301.281 500.02L301.775 501.958C302.065 501.884 302.356 501.809 302.646 501.734L302.143 499.798ZM301.281 500.02L301.775 501.958C302.065 501.884 302.356 501.809 302.646 501.734L302.143 499.798L301.64 497.862C301.356 497.936 301.072 498.009 300.787 498.082L301.281 500.02ZM303.501 499.441L302.984 497.509C302.649 497.598 302.313 497.687 301.974 497.775L302.48 499.71L302.987 501.645C303.328 501.556 303.673 501.465 304.018 501.373L303.501 499.441ZM302.48 499.71L302.987 501.645C303.328 501.556 303.673 501.465 304.018 501.373L303.501 499.441L302.984 497.509C302.649 497.598 302.313 497.687 301.974 497.775L302.48 499.71ZM304.871 499.068L304.34 497.139C304.031 497.224 303.726 497.308 303.421 497.391L303.942 499.322L304.464 501.252C304.779 501.167 305.092 501.081 305.402 500.996L304.871 499.068ZM303.942 499.322L304.464 501.252C304.779 501.167 305.092 501.081 305.402 500.996L304.871 499.068L304.34 497.139C304.031 497.224 303.726 497.308 303.421 497.391L303.942 499.322ZM306.242 498.685L305.697 496.761C305.391 496.847 305.084 496.933 304.778 497.019L305.313 498.946L305.849 500.872C306.162 500.785 306.475 500.698 306.787 500.609L306.242 498.685ZM305.313 498.946L305.849 500.872C306.162 500.785 306.475 500.698 306.787 500.609L306.242 498.685L305.697 496.761C305.391 496.847 305.084 496.933 304.778 497.019L305.313 498.946ZM307.435 498.342L306.877 496.421C306.636 496.491 306.398 496.56 306.161 496.628L306.711 498.551L307.261 500.474C307.507 500.404 307.751 500.333 307.992 500.263L307.435 498.342ZM306.711 498.551L307.261 500.474C307.507 500.404 307.751 500.333 307.992 500.263L307.435 498.342L306.877 496.421C306.636 496.491 306.398 496.56 306.161 496.628L306.711 498.551ZM308.92 497.905L308.347 495.988C308.089 496.065 307.834 496.142 307.58 496.216L308.145 498.135L308.709 500.054C308.972 499.976 309.234 499.898 309.493 499.821L308.92 497.905ZM308.145 498.135L308.709 500.054C308.972 499.976 309.234 499.898 309.493 499.821L308.92 497.905L308.347 495.988C308.089 496.065 307.834 496.142 307.58 496.216L308.145 498.135ZM312.112 496.922L311.507 495.016C311.072 495.154 310.639 495.291 310.206 495.425L310.798 497.335L311.39 499.246C311.835 499.108 312.277 498.968 312.718 498.828L312.112 496.922ZM310.798 497.335L311.39 499.246C311.835 499.108 312.277 498.968 312.718 498.828L312.112 496.922L311.507 495.016C311.072 495.154 310.639 495.291 310.206 495.425L310.798 497.335ZM314.847 496.031L314.213 494.133C313.889 494.242 313.567 494.349 313.245 494.454L313.868 496.355L314.492 498.255C314.823 498.146 315.152 498.037 315.48 497.928L314.847 496.031ZM313.868 496.355L314.492 498.255C314.823 498.146 315.152 498.037 315.48 497.928L314.847 496.031L314.213 494.133C313.889 494.242 313.567 494.349 313.245 494.454L313.868 496.355ZM316.046 495.625L315.4 493.732C315.154 493.816 314.907 493.9 314.658 493.984L315.296 495.879L315.934 497.775C316.185 497.69 316.438 497.605 316.692 497.518L316.046 495.625ZM315.296 495.879L315.934 497.775C316.185 497.69 316.438 497.605 316.692 497.518L316.046 495.625L315.4 493.732C315.154 493.816 314.907 493.9 314.658 493.984L315.296 495.879ZM317.366 495.17L316.707 493.282C316.491 493.357 316.274 493.432 316.055 493.508L316.707 495.399L317.359 497.289C317.58 497.213 317.802 497.136 318.025 497.058L317.366 495.17ZM316.707 495.399L317.359 497.289C317.58 497.213 317.802 497.136 318.025 497.058L317.366 495.17L316.707 493.282C316.491 493.357 316.274 493.432 316.055 493.508L316.707 495.399ZM318.817 494.656L318.143 492.773C317.922 492.853 317.703 492.931 317.484 493.008L318.151 494.894L318.818 496.779C319.044 496.699 319.269 496.619 319.491 496.54L318.817 494.656ZM318.151 494.894L318.819 496.779C319.044 496.699 319.269 496.619 319.491 496.54L318.817 494.656L318.143 492.773C317.922 492.853 317.703 492.931 317.484 493.008L318.151 494.894ZM320.225 494.147L319.536 492.269C319.194 492.394 318.855 492.518 318.517 492.64L319.194 494.522L319.872 496.403C320.221 496.278 320.569 496.151 320.913 496.025L320.225 494.147ZM319.194 494.522L319.872 496.403C320.221 496.278 320.569 496.151 320.913 496.025L320.225 494.147L319.536 492.269C319.194 492.394 318.855 492.518 318.517 492.64L319.194 494.522ZM321.475 493.684L320.774 491.811C320.49 491.917 320.21 492.022 319.93 492.125L320.622 494.001L321.314 495.878C321.604 495.771 321.892 495.663 322.175 495.557L321.475 493.684ZM320.622 494.001L321.314 495.878C321.604 495.771 321.892 495.663 322.175 495.557L321.475 493.684L320.774 491.811C320.49 491.917 320.21 492.022 319.93 492.125L320.622 494.001ZM322.922 493.136L322.206 491.268C321.89 491.39 321.573 491.51 321.255 491.63L321.961 493.501L322.667 495.373C322.99 495.25 323.314 495.127 323.637 495.004L322.922 493.136ZM321.961 493.501L322.667 495.373C322.99 495.25 323.314 495.127 323.637 495.004L322.922 493.136L322.206 491.268C321.89 491.39 321.573 491.51 321.255 491.63L321.961 493.501ZM185.162 493.488L185.868 491.616C185.745 491.57 185.835 491.603 185.684 491.546L184.976 493.416L184.268 495.287C184.293 495.296 184.319 495.306 184.351 495.319C184.382 495.331 184.418 495.345 184.456 495.359L185.162 493.488ZM184.976 493.416L184.268 495.287C184.293 495.296 184.319 495.306 184.351 495.319C184.382 495.331 184.418 495.345 184.456 495.359L185.162 493.488L185.868 491.616C185.744 491.57 185.835 491.603 185.684 491.546L184.976 493.416ZM175.844 489.698L175.044 491.532C178.086 492.859 181.162 494.111 184.268 495.287L184.976 493.416L185.684 491.546C182.639 490.393 179.625 489.166 176.644 487.865L175.844 489.698ZM184.976 493.416L185.684 491.546C182.639 490.393 179.625 489.166 176.644 487.865L175.844 489.698L175.044 491.532C178.086 492.859 181.162 494.111 184.268 495.287L184.976 493.416ZM324.245 492.623L323.516 490.761C323.182 490.892 322.854 491.02 322.525 491.147L323.244 493.013L323.963 494.879C324.303 494.748 324.641 494.616 324.974 494.486L324.245 492.623ZM323.244 493.013L323.963 494.879C324.303 494.748 324.641 494.616 324.974 494.486L324.245 492.623L323.516 490.761C323.182 490.892 322.854 491.02 322.525 491.147L323.244 493.013ZM324.59 492.489L325.322 494.351C325.34 494.344 325.386 494.325 325.397 494.321L324.664 492.46L323.931 490.599C323.892 490.615 323.89 490.616 323.858 490.628L324.59 492.489ZM324.664 492.46L323.931 490.599C323.893 490.615 323.889 490.616 323.858 490.628L324.59 492.489L325.322 494.351C325.34 494.344 325.386 494.325 325.397 494.321L324.664 492.46ZM327.158 491.458L326.4 489.608C325.58 489.944 324.756 490.274 323.931 490.599L324.664 492.46L325.397 494.321C326.239 493.989 327.079 493.652 327.916 493.309L327.158 491.458ZM324.664 492.46L325.397 494.321C326.239 493.989 327.079 493.652 327.916 493.309L327.158 491.458L326.4 489.608C325.58 489.944 324.756 490.274 323.931 490.599L324.664 492.46ZM328.455 490.921L327.684 489.076C327.455 489.172 327.226 489.266 326.989 489.364L327.753 491.212L328.517 493.06C328.748 492.965 328.988 492.866 329.226 492.766L328.455 490.921ZM327.753 491.212L328.517 493.06C328.748 492.965 328.988 492.866 329.226 492.766L328.455 490.921L327.684 489.076C327.455 489.172 327.226 489.266 326.989 489.364L327.753 491.212ZM329.735 490.381L328.951 488.541C328.73 488.636 328.508 488.73 328.285 488.823L329.062 490.666L329.84 492.509C330.066 492.414 330.293 492.318 330.519 492.221L329.735 490.381ZM329.062 490.666L329.84 492.509C330.066 492.414 330.293 492.318 330.519 492.221L329.735 490.381L328.951 488.541C328.73 488.636 328.508 488.73 328.285 488.823L329.062 490.666ZM330.978 489.846L330.181 488.011C329.99 488.094 329.802 488.176 329.614 488.257L330.404 490.094L331.195 491.931C331.389 491.847 331.583 491.764 331.774 491.681L330.978 489.846ZM330.404 490.094L331.195 491.931C331.389 491.847 331.583 491.764 331.774 491.681L330.978 489.846L330.181 488.011C329.99 488.094 329.802 488.176 329.614 488.257L330.404 490.094ZM175.844 489.698L176.644 487.865C176.501 487.803 176.67 487.877 176.55 487.825L175.749 489.657L174.948 491.49C174.969 491.499 174.989 491.508 175.005 491.515C175.021 491.522 175.033 491.527 175.044 491.532L175.844 489.698ZM175.749 489.657L174.948 491.49C174.969 491.499 174.989 491.508 175.005 491.515C175.021 491.522 175.033 491.527 175.044 491.532L175.844 489.698L176.644 487.865C176.501 487.803 176.67 487.877 176.55 487.825L175.749 489.657ZM317.85 160.728V162.728C371.974 162.728 415.85 206.604 415.85 260.728H417.85H419.85C419.85 204.395 374.183 158.728 317.85 158.728V160.728ZM417.85 260.728H415.85V406H417.85H419.85V260.728H417.85ZM417.85 406H415.85C415.85 411.406 415.411 416.708 414.57 421.874L416.544 422.196L418.518 422.517C419.394 417.14 419.85 411.623 419.85 406H417.85ZM416.544 422.196L414.962 420.972C393.434 448.798 366.446 470.993 335.927 485.409L336.781 487.217L337.635 489.025C368.765 474.322 396.24 451.708 418.126 423.419L416.544 422.196ZM336.781 487.217H338.781V389.08H336.781H334.781V487.217H336.781ZM336.781 389.08H338.781C338.781 357.6 313.261 332.08 281.781 332.08V334.08V336.08C311.052 336.08 334.781 359.809 334.781 389.08H336.781ZM281.781 334.08V332.08H229.646V334.08V336.08H281.781V334.08ZM229.646 334.08L229.645 332.08C198.165 332.08 172.646 357.6 172.646 389.08H174.646H176.646C176.646 359.809 200.375 336.08 229.646 336.08L229.646 334.08ZM174.646 389.08H172.646V489.171H174.646H176.646V389.08H174.646ZM174.646 489.171L173.834 490.999C174.204 491.163 174.576 491.327 174.948 491.49L175.749 489.657L176.55 487.825C176.186 487.666 175.822 487.505 175.457 487.343L174.646 489.171ZM175.749 489.657L176.55 487.825C147.402 475.089 121.293 455.329 99.8386 430.345L98.3213 431.648L96.804 432.951C118.622 458.359 145.211 478.497 174.948 491.49L175.749 489.657ZM98.3213 431.648L100.255 431.136C98.1327 423.116 97 414.692 97 406L95 406L93 406C93 415.041 94.1784 423.809 96.3878 432.159L98.3213 431.648ZM95 406H97V260.728H95H93V406H95ZM95 260.728H97C97 206.604 140.876 162.728 195 162.728V160.728V158.728C138.667 158.728 93 204.395 93 260.728H95ZM195 160.728V162.728H317.85V160.728V158.728H195V160.728ZM332.354 489.242L331.544 487.414C331.309 487.518 331.072 487.622 330.833 487.727L331.636 489.559L332.439 491.391C332.679 491.285 332.922 491.179 333.165 491.071L332.354 489.242ZM331.636 489.559L332.439 491.391C332.679 491.285 332.922 491.179 333.165 491.071L332.354 489.242L331.544 487.414C331.309 487.518 331.072 487.622 330.833 487.727L331.636 489.559ZM333.517 488.723L332.695 486.9C332.484 486.994 332.279 487.087 332.073 487.179L332.889 489.005L333.704 490.831C333.918 490.736 334.13 490.64 334.338 490.546L333.517 488.723ZM332.889 489.005L333.704 490.831C333.918 490.736 334.13 490.64 334.338 490.546L333.517 488.723L332.695 486.9C332.484 486.994 332.279 487.087 332.073 487.179L332.889 489.005ZM334.746 488.163L333.912 486.345C333.74 486.425 333.625 486.479 333.471 486.549L334.301 488.368L335.13 490.188C335.274 490.123 335.456 490.038 335.58 489.981L334.746 488.163ZM334.301 488.368L335.13 490.188C335.274 490.123 335.455 490.038 335.58 489.981L334.746 488.163L333.912 486.346C333.74 486.425 333.625 486.479 333.471 486.549L334.301 488.368ZM282.822 503.778L282.52 501.801C282.243 501.843 281.991 501.883 281.73 501.921L282.024 503.9L282.319 505.878C282.59 505.837 282.87 505.794 283.125 505.755L282.822 503.778ZM282.024 503.9L282.319 505.878C282.59 505.837 282.87 505.794 283.125 505.755L282.822 503.778L282.52 501.801C282.243 501.843 281.991 501.883 281.73 501.921L282.024 503.9ZM222.801 503.537L223.119 501.563C222.756 501.504 222.391 501.444 222.024 501.382L221.693 503.355L221.363 505.327C221.734 505.389 222.107 505.451 222.482 505.512L222.801 503.537ZM221.693 503.355L221.363 505.327C221.734 505.389 222.107 505.451 222.482 505.512L222.801 503.537L223.12 501.563C222.756 501.504 222.391 501.444 222.024 501.382L221.693 503.355ZM310.437 497.446L309.848 495.534C309.494 495.643 309.138 495.751 308.781 495.859L309.358 497.774L309.936 499.689C310.298 499.579 310.661 499.469 311.025 499.357L310.437 497.446ZM309.358 497.774L309.936 499.689C310.298 499.579 310.661 499.469 311.025 499.357L310.437 497.446L309.848 495.534C309.494 495.643 309.138 495.751 308.781 495.859L309.358 497.774ZM313.448 496.491L312.829 494.59C312.402 494.729 311.978 494.866 311.555 495.001L312.161 496.906L312.767 498.812C313.203 498.674 313.637 498.533 314.067 498.393L313.448 496.491ZM312.161 496.906L312.767 498.812C313.203 498.674 313.637 498.533 314.067 498.393L313.448 496.491L312.829 494.59C312.402 494.729 311.978 494.866 311.555 495.001L312.161 496.906ZM336.336 487.426L335.486 485.616C335.153 485.772 334.822 485.927 334.491 486.08L335.331 487.895L336.171 489.71C336.511 489.553 336.849 489.394 337.186 489.237L336.336 487.426ZM335.331 487.895L336.171 489.71C336.511 489.553 336.849 489.394 337.186 489.237L336.336 487.426L335.486 485.616C335.153 485.772 334.822 485.927 334.491 486.08L335.331 487.895Z" fill="white" fill-opacity="0.15" mask="url(#path-1-inside-1_1_3)"/>
<mask id="path-3-inside-2_1_3" fill="white">
<path d="M271.182 364.166C293.273 364.166 311.182 382.075 311.182 404.166V497.124C292.839 502.909 273.524 506 253.58 506C235.177 506 217.309 503.368 200.246 498.416V404.166C200.246 382.075 218.155 364.166 240.246 364.166H271.182Z"/>
</mask>
<path d="M271.182 364.166C293.273 364.166 311.182 382.075 311.182 404.166V497.124C292.839 502.909 273.524 506 253.58 506C235.177 506 217.309 503.368 200.246 498.416V404.166C200.246 382.075 218.155 364.166 240.246 364.166H271.182Z" fill="url(#paint1_linear_1_3)"/>
<path d="M271.182 364.166L271.182 362.166H271.182V364.166ZM311.182 497.124L311.783 499.032L313.182 498.591V497.124H311.182ZM253.58 506L253.58 508H253.58V506ZM200.246 498.416H198.246V499.918L199.689 500.337L200.246 498.416ZM200.246 404.166L198.246 404.166V404.166H200.246ZM271.182 364.166L271.182 366.166C292.169 366.166 309.182 383.179 309.182 404.166H311.182H313.182C313.182 380.97 294.378 362.166 271.182 362.166L271.182 364.166ZM311.182 404.166H309.182V497.124H311.182H313.182V404.166H311.182ZM311.182 497.124L310.58 495.217C292.428 500.941 273.316 504 253.58 504V506V508C273.732 508 293.25 504.876 311.783 499.032L311.182 497.124ZM253.58 506L253.58 504C235.369 504 217.689 501.395 200.804 496.495L200.246 498.416L199.689 500.337C216.93 505.34 234.985 508 253.58 508L253.58 506ZM200.246 498.416H202.246V404.166H200.246H198.246V498.416H200.246ZM200.246 404.166L202.246 404.166C202.246 383.179 219.26 366.166 240.246 366.166V364.166V362.166C217.05 362.166 198.246 380.97 198.246 404.166L200.246 404.166ZM240.246 364.166V366.166H271.182V364.166V362.166H240.246V364.166Z" fill="white" fill-opacity="0.15" mask="url(#path-3-inside-2_1_3)"/>
<ellipse cx="257.136" cy="73.3352" rx="68.2679" ry="67.3352" fill="url(#paint2_linear_1_3)"/>
<path d="M257.136 7C294.3 7 324.404 36.7121 324.404 73.335C324.404 109.958 294.3 139.671 257.136 139.671C219.972 139.671 189.868 109.958 189.868 73.335C189.868 36.7122 219.972 7.00015 257.136 7Z" stroke="white" stroke-opacity="0.15" stroke-width="2"/>
</g>
<defs>
<filter id="filter0_i_1_3" x="95" y="4" width="322.85" height="502" filterUnits="userSpaceOnUse" color-interpolation-filters="sRGB">
<feFlood flood-opacity="0" result="BackgroundImageFix"/>
<feBlend mode="normal" in="SourceGraphic" in2="BackgroundImageFix" result="shape"/>
<feColorMatrix in="SourceAlpha" type="matrix" values="0 0 0 0 0 0 0 0 0 0 0 0 0 0 0 0 0 0 127 0" result="hardAlpha"/>
<feOffset dy="-2"/>
<feGaussianBlur stdDeviation="3"/>
<feComposite in2="hardAlpha" operator="arithmetic" k2="-1" k3="1"/>
<feColorMatrix type="matrix" values="0 0 0 0 1 0 0 0 0 1 0 0 0 0 1 0 0 0 0.25 0"/>
<feBlend mode="normal" in2="shape" result="effect1_innerShadow_1_3"/>
</filter>
<linearGradient id="paint0_linear_1_3" x1="458.384" y1="448.706" x2="82.5585" y2="190.533" gradientUnits="userSpaceOnUse">
<stop stop-color="#4ED9FF"/>
<stop offset="0.3125" stop-color="#2DA4D0"/>
<stop offset="1" stop-color="#005986"/>
</linearGradient>
<linearGradient id="paint1_linear_1_3" x1="255.714" y1="372.046" x2="255.714" y2="506" gradientUnits="userSpaceOnUse">
<stop stop-color="#4ED9FF"/>
<stop offset="1" stop-color="#005986"/>
</linearGradient>
<linearGradient id="paint2_linear_1_3" x1="368.783" y1="103.421" x2="154.362" y2="24.9243" gradientUnits="userSpaceOnUse">
<stop stop-color="#44EBFE"/>
<stop offset="1" stop-color="#004586"/>
</linearGradient>
</defs>
</svg>
