<svg width="1920" height="1764" viewBox="0 0 1920 1764" fill="none" xmlns="http://www.w3.org/2000/svg">
<path d="M443.88 183.22H508.316C510.927 183.22 513.181 184.169 515.08 186.068C516.979 187.967 517.928 190.221 517.928 192.832V246.588C517.928 249.199 516.979 251.453 515.08 253.352C513.181 255.251 510.927 256.2 508.316 256.2H282.612C280.001 256.2 277.747 255.251 275.848 253.352C273.949 251.453 273 249.199 273 246.588V192.832C273 190.221 273.949 187.967 275.848 186.068C277.747 184.169 280.001 183.22 282.612 183.22H347.76V79.98H282.612C280.001 79.98 277.747 79.0307 275.848 77.132C273.949 75.2333 273 72.9787 273 70.368V16.612C273 14.0013 273.949 11.7467 275.848 9.84801C277.747 7.94934 280.001 7 282.612 7H508.316C510.927 7 513.181 7.94934 515.08 9.84801C516.979 11.7467 517.928 14.0013 517.928 16.612V70.368C517.928 72.9787 516.979 75.2333 515.08 77.132C513.181 79.0307 510.927 79.98 508.316 79.98H443.88V183.22Z" fill="#A3A2A2" fill-opacity="0.22"/>
<path d="M1021.72 439.02H1086.15C1088.76 439.02 1091.02 439.969 1092.92 441.868C1094.81 443.767 1095.76 446.021 1095.76 448.632V502.388C1095.76 504.999 1094.81 507.253 1092.92 509.152C1091.02 511.051 1088.76 512 1086.15 512H860.448C857.837 512 855.583 511.051 853.684 509.152C851.785 507.253 850.836 504.999 850.836 502.388V448.632C850.836 446.021 851.785 443.767 853.684 441.868C855.583 439.969 857.837 439.02 860.448 439.02H925.596V335.78H860.448C857.837 335.78 855.583 334.831 853.684 332.932C851.785 331.033 850.836 328.779 850.836 326.168V272.412C850.836 269.801 851.785 267.547 853.684 265.648C855.583 263.749 857.837 262.8 860.448 262.8H1086.15C1088.76 262.8 1091.02 263.749 1092.92 265.648C1094.81 267.547 1095.76 269.801 1095.76 272.412V326.168C1095.76 328.779 1094.81 331.033 1092.92 332.932C1091.02 334.831 1088.76 335.78 1086.15 335.78H1021.72V439.02Z" fill="#A3A2A2" fill-opacity="0.22"/>
<path d="M127.176 7C167.285 7 199.325 15.6627 223.296 32.988C247.504 50.3133 259.608 77.132 259.608 113.444V149.756C259.608 186.78 247.623 213.836 223.652 230.924C199.919 247.775 167.76 256.2 127.176 256.2H13.612C11.0013 256.2 8.74667 255.251 6.848 253.352C4.94933 251.453 4 249.199 4 246.588V16.612C4 14.0013 4.94933 11.7467 6.848 9.84801C8.74667 7.94934 11.0013 7 13.612 7H127.176ZM128.956 186.78C140.111 186.78 148.892 184.169 155.3 178.948C161.945 173.489 165.268 165.895 165.268 156.164V107.036C165.268 97.3053 161.945 89.8293 155.3 84.608C148.892 79.1493 140.111 76.42 128.956 76.42H96.56V186.78H128.956Z" fill="#A3A2A2" fill-opacity="0.22"/>
<path d="M830.12 1286.8C832.731 1286.8 834.985 1287.75 836.884 1289.65C838.783 1291.55 839.732 1293.8 839.732 1296.41V1353.73C839.732 1356.34 838.783 1358.59 836.884 1360.49C834.985 1362.39 832.731 1363.34 830.12 1363.34H753.58V1526.39C753.58 1529 752.631 1531.25 750.732 1533.15C748.833 1535.05 746.579 1536 743.968 1536H670.632C668.021 1536 665.767 1535.05 663.868 1533.15C661.969 1531.25 661.02 1529 661.02 1526.39V1363.34H584.48C581.869 1363.34 579.615 1362.39 577.716 1360.49C575.817 1358.59 574.868 1356.34 574.868 1353.73V1296.41C574.868 1293.8 575.817 1291.55 577.716 1289.65C579.615 1287.75 581.869 1286.8 584.48 1286.8H830.12Z" fill="#A3A2A2" fill-opacity="0.22"/>
<path d="M444.716 1208.02H509.152C511.763 1208.02 514.017 1208.97 515.916 1210.87C517.815 1212.77 518.764 1215.02 518.764 1217.63V1271.39C518.764 1274 517.815 1276.25 515.916 1278.15C514.017 1280.05 511.763 1281 509.152 1281H283.448C280.837 1281 278.583 1280.05 276.684 1278.15C274.785 1276.25 273.836 1274 273.836 1271.39V1217.63C273.836 1215.02 274.785 1212.77 276.684 1210.87C278.583 1208.97 280.837 1208.02 283.448 1208.02H348.596V1104.78H283.448C280.837 1104.78 278.583 1103.83 276.684 1101.93C274.785 1100.03 273.836 1097.78 273.836 1095.17V1041.41C273.836 1038.8 274.785 1036.55 276.684 1034.65C278.583 1032.75 280.837 1031.8 283.448 1031.8H509.152C511.763 1031.8 514.017 1032.75 515.916 1034.65C517.815 1036.55 518.764 1038.8 518.764 1041.41V1095.17C518.764 1097.78 517.815 1100.03 515.916 1101.93C514.017 1103.83 511.763 1104.78 509.152 1104.78H444.716V1208.02Z" fill="#A3A2A2" fill-opacity="0.22"/>
<path d="M1038.72 1463.02H1103.15C1105.76 1463.02 1108.02 1463.97 1109.92 1465.87C1111.81 1467.77 1112.76 1470.02 1112.76 1472.63V1526.39C1112.76 1529 1111.81 1531.25 1109.92 1533.15C1108.02 1535.05 1105.76 1536 1103.15 1536H877.448C874.837 1536 872.583 1535.05 870.684 1533.15C868.785 1531.25 867.836 1529 867.836 1526.39V1472.63C867.836 1470.02 868.785 1467.77 870.684 1465.87C872.583 1463.97 874.837 1463.02 877.448 1463.02H942.596V1359.78H877.448C874.837 1359.78 872.583 1358.83 870.684 1356.93C868.785 1355.03 867.836 1352.78 867.836 1350.17V1296.41C867.836 1293.8 868.785 1291.55 870.684 1289.65C872.583 1287.75 874.837 1286.8 877.448 1286.8H1103.15C1105.76 1286.8 1108.02 1287.75 1109.92 1289.65C1111.81 1291.55 1112.76 1293.8 1112.76 1296.41V1350.17C1112.76 1352.78 1111.81 1355.03 1109.92 1356.93C1108.02 1358.83 1105.76 1359.78 1103.15 1359.78H1038.72V1463.02Z" fill="#A3A2A2" fill-opacity="0.22"/>
<path d="M830.75 362.3C833.317 362.3 835.533 363.233 837.4 365.1C839.267 366.967 840.2 369.183 840.2 371.75V408.85C840.2 444.317 828.067 470.683 803.8 487.95C779.767 504.983 747.917 513.5 708.25 513.5C668.583 513.5 636.617 504.983 612.35 487.95C588.317 470.683 576.3 444.083 576.3 408.15V366.85C576.3 343.05 582.133 323.333 593.8 307.7C605.467 291.833 621.217 280.167 641.05 272.7C660.883 265.233 683.283 261.5 708.25 261.5C738.117 261.5 762.733 266.4 782.1 276.2C801.467 286 815.467 297.083 824.1 309.45C832.967 321.817 837.4 331.85 837.4 339.55C837.4 341.65 836.583 343.517 834.95 345.15C833.55 346.55 831.8 347.25 829.7 347.25H750.6C745.933 347.25 742.55 345.967 740.45 343.4C733.217 334.3 722.483 329.75 708.25 329.75C697.517 329.75 688.533 332.2 681.3 337.1C674.3 342 670.8 348.3 670.8 356V415.5C670.8 424.833 674.3 432.183 681.3 437.55C688.3 442.683 697.283 445.25 708.25 445.25C722.717 445.25 733.333 442.8 740.1 437.9C747.1 432.767 750.717 426.817 750.95 420.05H729.25C726.683 420.05 724.467 419.117 722.6 417.25C720.733 415.383 719.8 413.167 719.8 410.6V371.75C719.8 369.183 720.733 366.967 722.6 365.1C724.467 363.233 726.683 362.3 729.25 362.3H830.75Z" fill="#A3A2A2" fill-opacity="0.22"/>
<path d="M94.55 1182.5C94.55 1192.07 97.7 1199.42 104 1204.55C110.533 1209.68 119.283 1212.25 130.25 1212.25C140.05 1212.25 147.283 1210.62 151.95 1207.35C156.617 1204.08 160.583 1199.18 163.85 1192.65C166.883 1186.58 170.967 1183.55 176.1 1183.55H251.7C253.8 1183.55 255.55 1184.37 256.95 1186C258.583 1187.4 259.4 1189.15 259.4 1191.25C259.4 1205.48 254.617 1219.48 245.05 1233.25C235.483 1246.78 220.9 1258.1 201.3 1267.2C181.933 1276.07 158.25 1280.5 130.25 1280.5C105.283 1280.5 83 1276.77 63.4 1269.3C44.0333 1261.6 28.6333 1249.93 17.2 1234.3C5.76667 1218.43 0.0500011 1198.72 0.0500011 1175.15V1133.85C0.0500011 1110.28 5.76667 1090.68 17.2 1075.05C28.6333 1059.18 44.0333 1047.52 63.4 1040.05C83 1032.35 105.283 1028.5 130.25 1028.5C158.25 1028.5 181.933 1033.05 201.3 1042.15C220.9 1051.02 235.483 1062.33 245.05 1076.1C254.617 1089.63 259.4 1103.52 259.4 1117.75C259.4 1119.85 258.583 1121.72 256.95 1123.35C255.55 1124.75 253.8 1125.45 251.7 1125.45H176.1C170.967 1125.45 166.883 1122.42 163.85 1116.35C160.583 1109.82 156.617 1104.92 151.95 1101.65C147.283 1098.38 140.05 1096.75 130.25 1096.75C119.283 1096.75 110.533 1099.32 104 1104.45C97.7 1109.58 94.55 1116.93 94.55 1126.5V1182.5Z" fill="#A3A2A2" fill-opacity="0.22"/>
<path d="M1390.93 1207.02C1393.54 1207.02 1395.8 1207.97 1397.7 1209.87C1399.59 1211.77 1400.54 1214.02 1400.54 1216.63V1270.39C1400.54 1273 1399.59 1275.25 1397.7 1277.15C1395.8 1279.05 1393.54 1280 1390.93 1280H1162.38C1159.77 1280 1157.51 1279.05 1155.62 1277.15C1153.72 1275.25 1152.77 1273 1152.77 1270.39V1219.12C1152.77 1216.04 1153.36 1213.43 1154.55 1211.29C1155.73 1209.16 1156.92 1207.61 1158.11 1206.66L1270.6 1103.78H1169.86C1167.25 1103.78 1164.99 1102.83 1163.09 1100.93C1161.19 1099.03 1160.24 1096.78 1160.24 1094.17V1040.41C1160.24 1037.8 1161.19 1035.55 1163.09 1033.65C1164.99 1031.75 1167.25 1030.8 1169.86 1030.8H1383.46C1386.07 1030.8 1388.32 1031.75 1390.22 1033.65C1392.12 1035.55 1393.07 1037.8 1393.07 1040.41V1091.32C1393.07 1096.3 1391.53 1100.22 1388.44 1103.07L1277.37 1207.02H1390.93Z" fill="#A3A2A2" fill-opacity="0.22"/>
<path d="M1643.64 1210.58C1646.25 1210.58 1648.51 1211.53 1650.41 1213.43C1652.31 1215.33 1653.26 1217.58 1653.26 1220.19V1270.39C1653.26 1273 1652.31 1275.25 1650.41 1277.15C1648.51 1279.05 1646.25 1280 1643.64 1280H1418.65C1416.04 1280 1413.79 1279.05 1411.89 1277.15C1409.99 1275.25 1409.04 1273 1409.04 1270.39V1040.41C1409.04 1037.8 1409.99 1035.55 1411.89 1033.65C1413.79 1031.75 1416.04 1030.8 1418.65 1030.8H1640.08C1642.69 1030.8 1644.95 1031.75 1646.85 1033.65C1648.75 1035.55 1649.7 1037.8 1649.7 1040.41V1090.61C1649.7 1093.22 1648.75 1095.47 1646.85 1097.37C1644.95 1099.27 1642.69 1100.22 1640.08 1100.22H1501.6V1122.65H1620.5C1623.11 1122.65 1625.37 1123.6 1627.27 1125.5C1629.17 1127.39 1630.12 1129.65 1630.12 1132.26V1178.54C1630.12 1181.15 1629.17 1183.41 1627.27 1185.3C1625.37 1187.2 1623.11 1188.15 1620.5 1188.15H1501.6V1210.58H1643.64Z" fill="#A3A2A2" fill-opacity="0.22"/>
<path d="M1898.73 1030.8C1901.34 1030.8 1903.59 1031.75 1905.49 1033.65C1907.39 1035.55 1908.34 1037.8 1908.34 1040.41V1270.39C1908.34 1273 1907.39 1275.25 1905.49 1277.15C1903.59 1279.05 1901.34 1280 1898.73 1280H1841.41C1835.72 1280 1830.97 1277.51 1827.17 1272.52L1749.56 1173.56V1270.39C1749.56 1273 1748.61 1275.25 1746.72 1277.15C1744.82 1279.05 1742.56 1280 1739.95 1280H1673.74C1671.13 1280 1668.87 1279.05 1666.97 1277.15C1665.07 1275.25 1664.12 1273 1664.12 1270.39V1040.41C1664.12 1037.8 1665.07 1035.55 1666.97 1033.65C1668.87 1031.75 1671.13 1030.8 1673.74 1030.8H1731.41C1737.1 1030.8 1741.73 1033.17 1745.29 1037.92L1822.9 1145.08V1040.41C1822.9 1037.8 1823.85 1035.55 1825.75 1033.65C1827.65 1031.75 1829.9 1030.8 1832.51 1030.8H1898.73Z" fill="#A3A2A2" fill-opacity="0.22"/>
<path d="M1406.12 518.8C1408.73 518.8 1410.99 519.749 1412.88 521.648C1414.78 523.547 1415.73 525.801 1415.73 528.412V585.728C1415.73 588.339 1414.78 590.593 1412.88 592.492C1410.99 594.391 1408.73 595.34 1406.12 595.34H1329.58V758.388C1329.58 760.999 1328.63 763.253 1326.73 765.152C1324.83 767.051 1322.58 768 1319.97 768H1246.63C1244.02 768 1241.77 767.051 1239.87 765.152C1237.97 763.253 1237.02 760.999 1237.02 758.388V595.34H1160.48C1157.87 595.34 1155.61 594.391 1153.72 592.492C1151.82 590.593 1150.87 588.339 1150.87 585.728V528.412C1150.87 525.801 1151.82 523.547 1153.72 521.648C1155.61 519.749 1157.87 518.8 1160.48 518.8H1406.12Z" fill="#A3A2A2" fill-opacity="0.22"/>
<path d="M1482.04 755.896C1478.95 763.965 1473.61 768 1466.02 768H1398.73C1396.6 768 1394.7 767.288 1393.04 765.864C1391.61 764.203 1390.9 762.304 1390.9 760.168L1391.26 758.032L1468.86 530.548C1469.81 527.463 1471.59 524.733 1474.2 522.36C1476.81 519.987 1480.37 518.8 1484.88 518.8H1583.85C1588.36 518.8 1591.92 519.987 1594.53 522.36C1597.14 524.733 1598.92 527.463 1599.87 530.548L1677.48 758.032L1677.84 760.168C1677.84 762.304 1677.01 764.203 1675.34 765.864C1673.92 767.288 1672.14 768 1670 768H1602.72C1595.13 768 1589.79 763.965 1586.7 755.896L1577.8 730.976H1490.94L1482.04 755.896ZM1534.37 587.508L1509.09 661.556H1559.64L1534.37 587.508Z" fill="#A3A2A2" fill-opacity="0.22"/>
<path d="M1904.36 696.02C1906.97 696.02 1909.22 696.969 1911.12 698.868C1913.02 700.767 1913.97 703.021 1913.97 705.632V759.388C1913.97 761.999 1913.02 764.253 1911.12 766.152C1909.22 768.051 1906.97 769 1904.36 769H1696.45C1693.84 769 1691.59 768.051 1689.69 766.152C1687.79 764.253 1686.84 761.999 1686.84 759.388V529.412C1686.84 526.801 1687.79 524.547 1689.69 522.648C1691.59 520.749 1693.84 519.8 1696.45 519.8H1773.35C1775.96 519.8 1778.21 520.749 1780.11 522.648C1782.01 524.547 1782.96 526.801 1782.96 529.412V696.02H1904.36Z" fill="#A3A2A2" fill-opacity="0.22"/>
</svg>
