<svg width="1920" height="1794" viewBox="0 0 1920 1794" fill="none" xmlns="http://www.w3.org/2000/svg">
<g clip-path="url(#clip0_2_3)">
<path d="M955.232 8.79998C995.341 8.79998 1027.38 17.4627 1051.35 34.788C1075.56 52.1133 1087.66 78.932 1087.66 115.244V151.556C1087.66 188.58 1075.68 215.636 1051.71 232.724C1027.97 249.575 995.816 258 955.232 258H841.668C839.057 258 836.803 257.051 834.904 255.152C833.005 253.253 832.056 250.999 832.056 248.388V18.412C832.056 15.8013 833.005 13.5467 834.904 11.648C836.803 9.74932 839.057 8.79998 841.668 8.79998H955.232ZM957.012 188.58C968.167 188.58 976.948 185.969 983.356 180.748C990.001 175.289 993.324 167.695 993.324 157.964V108.836C993.324 99.1053 990.001 91.6293 983.356 86.408C976.948 80.9493 968.167 78.22 957.012 78.22H924.616V188.58H957.012Z" fill="#A3A2A2" fill-opacity="0.22"/>
<path d="M1002.72 441.02H1067.15C1069.76 441.02 1072.02 441.969 1073.92 443.868C1075.81 445.767 1076.76 448.021 1076.76 450.632V504.388C1076.76 506.999 1075.81 509.253 1073.92 511.152C1072.02 513.051 1069.76 514 1067.15 514H841.448C838.837 514 836.583 513.051 834.684 511.152C832.785 509.253 831.836 506.999 831.836 504.388V450.632C831.836 448.021 832.785 445.767 834.684 443.868C836.583 441.969 838.837 441.02 841.448 441.02H906.596V337.78H841.448C838.837 337.78 836.583 336.831 834.684 334.932C832.785 333.033 831.836 330.779 831.836 328.168V274.412C831.836 271.801 832.785 269.547 834.684 267.648C836.583 265.749 838.837 264.8 841.448 264.8H1067.15C1069.76 264.8 1072.02 265.749 1073.92 267.648C1075.81 269.547 1076.76 271.801 1076.76 274.412V328.168C1076.76 330.779 1075.81 333.033 1073.92 334.932C1072.02 336.831 1069.76 337.78 1067.15 337.78H1002.72V441.02Z" fill="#A3A2A2" fill-opacity="0.22"/>
<path d="M824.12 776.8C826.731 776.8 828.985 777.749 830.884 779.648C832.783 781.547 833.732 783.801 833.732 786.412V843.728C833.732 846.339 832.783 848.593 830.884 850.492C828.985 852.391 826.731 853.34 824.12 853.34H747.58V1016.39C747.58 1019 746.631 1021.25 744.732 1023.15C742.833 1025.05 740.579 1026 737.968 1026H664.632C662.021 1026 659.767 1025.05 657.868 1023.15C655.969 1021.25 655.02 1019 655.02 1016.39V853.34H578.48C575.869 853.34 573.615 852.391 571.716 850.492C569.817 848.593 568.868 846.339 568.868 843.728V786.412C568.868 783.801 569.817 781.547 571.716 779.648C573.615 777.749 575.869 776.8 578.48 776.8H824.12Z" fill="#A3A2A2" fill-opacity="0.22"/>
<path d="M460.716 953.02H525.152C527.763 953.02 530.017 953.969 531.916 955.868C533.815 957.767 534.764 960.021 534.764 962.632V1016.39C534.764 1019 533.815 1021.25 531.916 1023.15C530.017 1025.05 527.763 1026 525.152 1026H299.448C296.837 1026 294.583 1025.05 292.684 1023.15C290.785 1021.25 289.836 1019 289.836 1016.39V962.632C289.836 960.021 290.785 957.767 292.684 955.868C294.583 953.969 296.837 953.02 299.448 953.02H364.596V849.78H299.448C296.837 849.78 294.583 848.831 292.684 846.932C290.785 845.033 289.836 842.779 289.836 840.168V786.412C289.836 783.801 290.785 781.547 292.684 779.648C294.583 777.749 296.837 776.8 299.448 776.8H525.152C527.763 776.8 530.017 777.749 531.916 779.648C533.815 781.547 534.764 783.801 534.764 786.412V840.168C534.764 842.779 533.815 845.033 531.916 846.932C530.017 848.831 527.763 849.78 525.152 849.78H460.716V953.02Z" fill="#A3A2A2" fill-opacity="0.22"/>
<path d="M852.2 1023C849.8 1023 848.6 1021.8 848.6 1019.4V778.2C848.6 775.8 849.8 774.6 852.2 774.6C854.84 774.6 856.16 775.8 856.16 778.2V1019.4C856.16 1021.8 854.84 1023 852.2 1023Z" fill="#A3A2A2" fill-opacity="0.22"/>
<path d="M1086.75 619.3C1089.32 619.3 1091.53 620.233 1093.4 622.1C1095.27 623.967 1096.2 626.183 1096.2 628.75V665.85C1096.2 701.317 1084.07 727.683 1059.8 744.95C1035.77 761.983 1003.92 770.5 964.25 770.5C924.583 770.5 892.617 761.983 868.35 744.95C844.317 727.683 832.3 701.083 832.3 665.15V623.85C832.3 600.05 838.133 580.333 849.8 564.7C861.467 548.833 877.217 537.167 897.05 529.7C916.883 522.233 939.283 518.5 964.25 518.5C994.117 518.5 1018.73 523.4 1038.1 533.2C1057.47 543 1071.47 554.083 1080.1 566.45C1088.97 578.817 1093.4 588.85 1093.4 596.55C1093.4 598.65 1092.58 600.517 1090.95 602.15C1089.55 603.55 1087.8 604.25 1085.7 604.25H1006.6C1001.93 604.25 998.55 602.967 996.45 600.4C989.217 591.3 978.483 586.75 964.25 586.75C953.517 586.75 944.533 589.2 937.3 594.1C930.3 599 926.8 605.3 926.8 613V672.5C926.8 681.833 930.3 689.183 937.3 694.55C944.3 699.683 953.283 702.25 964.25 702.25C978.717 702.25 989.333 699.8 996.1 694.9C1003.1 689.767 1006.72 683.817 1006.95 677.05H985.25C982.683 677.05 980.467 676.117 978.6 674.25C976.733 672.383 975.8 670.167 975.8 667.6V628.75C975.8 626.183 976.733 623.967 978.6 622.1C980.467 620.233 982.683 619.3 985.25 619.3H1086.75Z" fill="#A3A2A2" fill-opacity="0.22"/>
<path d="M93.55 928.5C93.55 938.067 96.7 945.417 103 950.55C109.533 955.683 118.283 958.25 129.25 958.25C139.05 958.25 146.283 956.617 150.95 953.35C155.617 950.083 159.583 945.183 162.85 938.65C165.883 932.583 169.967 929.55 175.1 929.55H250.7C252.8 929.55 254.55 930.367 255.95 932C257.583 933.4 258.4 935.15 258.4 937.25C258.4 951.483 253.617 965.483 244.05 979.25C234.483 992.783 219.9 1004.1 200.3 1013.2C180.933 1022.07 157.25 1026.5 129.25 1026.5C104.283 1026.5 82 1022.77 62.4 1015.3C43.0333 1007.6 27.6333 995.933 16.2 980.3C4.76667 964.433 -0.949999 944.717 -0.949999 921.15V879.85C-0.949999 856.283 4.76667 836.683 16.2 821.05C27.6333 805.183 43.0333 793.517 62.4 786.05C82 778.35 104.283 774.5 129.25 774.5C157.25 774.5 180.933 779.05 200.3 788.15C219.9 797.017 234.483 808.333 244.05 822.1C253.617 835.633 258.4 849.517 258.4 863.75C258.4 865.85 257.583 867.717 255.95 869.35C254.55 870.75 252.8 871.45 250.7 871.45H175.1C169.967 871.45 165.883 868.417 162.85 862.35C159.583 855.817 155.617 850.917 150.95 847.65C146.283 844.383 139.05 842.75 129.25 842.75C118.283 842.75 109.533 845.317 103 850.45C96.7 855.583 93.55 862.933 93.55 872.5V928.5Z" fill="#A3A2A2" fill-opacity="0.22"/>
<path d="M1326.93 953.02C1329.54 953.02 1331.8 953.969 1333.7 955.868C1335.59 957.767 1336.54 960.021 1336.54 962.632V1016.39C1336.54 1019 1335.59 1021.25 1333.7 1023.15C1331.8 1025.05 1329.54 1026 1326.93 1026H1098.38C1095.77 1026 1093.51 1025.05 1091.62 1023.15C1089.72 1021.25 1088.77 1019 1088.77 1016.39V965.124C1088.77 962.039 1089.36 959.428 1090.55 957.292C1091.73 955.156 1092.92 953.613 1094.11 952.664L1206.6 849.78H1105.86C1103.25 849.78 1100.99 848.831 1099.09 846.932C1097.19 845.033 1096.24 842.779 1096.24 840.168V786.412C1096.24 783.801 1097.19 781.547 1099.09 779.648C1100.99 777.749 1103.25 776.8 1105.86 776.8H1319.46C1322.07 776.8 1324.32 777.749 1326.22 779.648C1328.12 781.547 1329.07 783.801 1329.07 786.412V837.32C1329.07 842.304 1327.53 846.22 1324.44 849.068L1213.37 953.02H1326.93Z" fill="#A3A2A2" fill-opacity="0.22"/>
<path d="M1623.64 956.58C1626.25 956.58 1628.51 957.529 1630.41 959.428C1632.31 961.327 1633.26 963.581 1633.26 966.192V1016.39C1633.26 1019 1632.31 1021.25 1630.41 1023.15C1628.51 1025.05 1626.25 1026 1623.64 1026H1398.65C1396.04 1026 1393.79 1025.05 1391.89 1023.15C1389.99 1021.25 1389.04 1019 1389.04 1016.39V786.412C1389.04 783.801 1389.99 781.547 1391.89 779.648C1393.79 777.749 1396.04 776.8 1398.65 776.8H1620.08C1622.69 776.8 1624.95 777.749 1626.85 779.648C1628.75 781.547 1629.7 783.801 1629.7 786.412V836.608C1629.7 839.219 1628.75 841.473 1626.85 843.372C1624.95 845.271 1622.69 846.22 1620.08 846.22H1481.6V868.648H1600.5C1603.11 868.648 1605.37 869.597 1607.27 871.496C1609.17 873.395 1610.12 875.649 1610.12 878.26V924.54C1610.12 927.151 1609.17 929.405 1607.27 931.304C1605.37 933.203 1603.11 934.152 1600.5 934.152H1481.6V956.58H1623.64Z" fill="#A3A2A2" fill-opacity="0.22"/>
<path d="M1898.73 776.8C1901.34 776.8 1903.59 777.749 1905.49 779.648C1907.39 781.547 1908.34 783.801 1908.34 786.412V1016.39C1908.34 1019 1907.39 1021.25 1905.49 1023.15C1903.59 1025.05 1901.34 1026 1898.73 1026H1841.41C1835.72 1026 1830.97 1023.51 1827.17 1018.52L1749.56 919.556V1016.39C1749.56 1019 1748.61 1021.25 1746.72 1023.15C1744.82 1025.05 1742.56 1026 1739.95 1026H1673.74C1671.13 1026 1668.87 1025.05 1666.97 1023.15C1665.07 1021.25 1664.12 1019 1664.12 1016.39V786.412C1664.12 783.801 1665.07 781.547 1666.97 779.648C1668.87 777.749 1671.13 776.8 1673.74 776.8H1731.41C1737.1 776.8 1741.73 779.173 1745.29 783.92L1822.9 891.076V786.412C1822.9 783.801 1823.85 781.547 1825.75 779.648C1827.65 777.749 1829.9 776.8 1832.51 776.8H1898.73Z" fill="#A3A2A2" fill-opacity="0.22"/>
<path d="M1087.12 1030.8C1089.73 1030.8 1091.99 1031.75 1093.88 1033.65C1095.78 1035.55 1096.73 1037.8 1096.73 1040.41V1097.73C1096.73 1100.34 1095.78 1102.59 1093.88 1104.49C1091.99 1106.39 1089.73 1107.34 1087.12 1107.34H1010.58V1270.39C1010.58 1273 1009.63 1275.25 1007.73 1277.15C1005.83 1279.05 1003.58 1280 1000.97 1280H927.632C925.021 1280 922.767 1279.05 920.868 1277.15C918.969 1275.25 918.02 1273 918.02 1270.39V1107.34H841.48C838.869 1107.34 836.615 1106.39 834.716 1104.49C832.817 1102.59 831.868 1100.34 831.868 1097.73V1040.41C831.868 1037.8 832.817 1035.55 834.716 1033.65C836.615 1031.75 838.869 1030.8 841.48 1030.8H1087.12Z" fill="#A3A2A2" fill-opacity="0.22"/>
<path d="M923.036 1523.9C919.951 1531.97 914.611 1536 907.016 1536H839.732C837.596 1536 835.697 1535.29 834.036 1533.86C832.612 1532.2 831.9 1530.3 831.9 1528.17L832.256 1526.03L909.864 1298.55C910.813 1295.46 912.593 1292.73 915.204 1290.36C917.815 1287.99 921.375 1286.8 925.884 1286.8H1024.85C1029.36 1286.8 1032.92 1287.99 1035.53 1290.36C1038.14 1292.73 1039.92 1295.46 1040.87 1298.55L1118.48 1526.03L1118.84 1528.17C1118.84 1530.3 1118.01 1532.2 1116.34 1533.86C1114.92 1535.29 1113.14 1536 1111 1536H1043.72C1036.13 1536 1030.79 1531.97 1027.7 1523.9L1018.8 1498.98H931.936L923.036 1523.9ZM975.368 1355.51L950.092 1429.56H1000.64L975.368 1355.51Z" fill="#A3A2A2" fill-opacity="0.22"/>
<path d="M1049.36 1720.02C1051.97 1720.02 1054.22 1720.97 1056.12 1722.87C1058.02 1724.77 1058.97 1727.02 1058.97 1729.63V1783.39C1058.97 1786 1058.02 1788.25 1056.12 1790.15C1054.22 1792.05 1051.97 1793 1049.36 1793H841.452C838.841 1793 836.587 1792.05 834.688 1790.15C832.789 1788.25 831.84 1786 831.84 1783.39V1553.41C831.84 1550.8 832.789 1548.55 834.688 1546.65C836.587 1544.75 838.841 1543.8 841.452 1543.8H918.348C920.959 1543.8 923.213 1544.75 925.112 1546.65C927.011 1548.55 927.96 1550.8 927.96 1553.41V1720.02H1049.36Z" fill="#A3A2A2" fill-opacity="0.22"/>
</g>
<defs>
<clipPath id="clip0_2_3">
<rect width="1920" height="1794" fill="white"/>
</clipPath>
</defs>
</svg>
